<?xml version="1.0" encoding="UTF-8"?>
<svg id="Layer_2" data-name="Layer 2" xmlns="http://www.w3.org/2000/svg" viewBox="0 0 9.82 13.7">
  <defs>
    <style>
      .cls-1 {
        fill: none;
        stroke: #578f40;
        stroke-miterlimit: 10;
        stroke-width: .3px;
      }
    </style>
  </defs>
  <g id="Layer_1-2" data-name="Layer 1">
    <g>
      <g>
        <polygon class="cls-1" points="2.15 2.66 1.15 2.66 .15 2.66 .15 11.18 2.15 11.18 2.15 2.66"/>
        <g>
          <polygon class="cls-1" points="1.11 .15 .71 .15 1.59 .15 1.11 .15"/>
          <line class="cls-1" x1="1.15" y1="2.66" x2="1.15" y2=".15"/>
        </g>
        <g>
          <polygon class="cls-1" points="1.19 13.08 1.59 13.08 .71 13.08 1.19 13.08"/>
          <line class="cls-1" x1="1.15" y1="11.3" x2="1.15" y2="13.08"/>
        </g>
        <line class="cls-1" x1=".15" y1="6.19" x2="2.15" y2="6.19"/>
      </g>
      <g>
        <polygon class="cls-1" points="6.13 8.59 5.13 8.59 4.13 8.59 4.13 12.65 6.13 12.65 6.13 8.59"/>
        <g>
          <polygon class="cls-1" points="5.09 7.39 4.69 7.39 5.57 7.39 5.09 7.39"/>
          <line class="cls-1" x1="5.13" y1="8.59" x2="5.13" y2="7.39"/>
        </g>
        <g>
          <polygon class="cls-1" points="5.17 13.55 5.57 13.55 4.69 13.55 5.17 13.55"/>
          <line class="cls-1" x1="5.13" y1="12.7" x2="5.13" y2="13.55"/>
        </g>
        <line class="cls-1" x1="4.13" y1="10.27" x2="6.13" y2="10.27"/>
      </g>
      <g>
        <polygon class="cls-1" points="9.67 2.27 8.67 2.27 7.67 2.27 7.67 9.2 9.67 9.2 9.67 2.27"/>
        <g>
          <polygon class="cls-1" points="8.63 .22 8.23 .22 9.11 .22 8.63 .22"/>
          <line class="cls-1" x1="8.67" y1="2.27" x2="8.67" y2=".22"/>
        </g>
        <g>
          <polygon class="cls-1" points="8.71 10.75 9.11 10.75 8.23 10.75 8.71 10.75"/>
          <line class="cls-1" x1="8.67" y1="9.3" x2="8.67" y2="10.75"/>
        </g>
        <line class="cls-1" x1="7.67" y1="5.14" x2="9.67" y2="5.14"/>
      </g>
    </g>
  </g>
</svg>