<svg xmlns="http://www.w3.org/2000/svg" width="377.953" height="377.953" viewBox="0 0 283.46 283.46" stroke="#fff" xmlns:v="https://vecta.io/nano"><path d="M134.766 192.412l-.103 2.534-1.396.275-.867.918-.779 2.313-.735.441-2.352-1.12.147 2.332 2.263 2.093.735 1.836 1.72.202 1.778 2.258 2.807 2.258 1.646 1.744.676 1.597.426 3.672.882.955.426 4.131-.323 1.322-.97 1.046-.441-1.928.22-1.689-1.881.422.279 3.176.75 2.423.764 1.175.735 2.46 1.646 2.607.103 1.928-1.014 5.067.941 1.377.338 2.827-.75.312-.22 2.24.441 1.065-.412 3.91.794 1.836-.75 2.368 1.823 2.35 1.279-.771.867 2.111v1.616l1.47 2.24v4.425l1.191 4.131-.132 1.285-1.058 1.01-1.587 4.645.661 1.046-1.132 1.175-.808-.257-.647-1.652.47-.808-.265-1.836-1.102-.734-1.073-2.019-.603-2.038-1.617-2.791-1.925.386-2.058 1.23-.779 1.083-1.161-.973-.75 1.248-2.043 1.634-3.924 4.498-1.029-.587-2.072-.165-1.382 1.689-1.793.367-2.748-.771-.779-3.231-1.47-.918-2.557-.918-1.088-1.12.647-1.267 2.131-1.359 4.409-1.028.823-.753.999-4.994 2.205-1.671-.559-1.303-2.602-4.057-1.47-1.212h-2.293l-2.704-2.185-2.675-.606-5.247-.386-1.558 1.248-5.379-2.497-2.704.789-2.66 8.427-.603.294-2.734-.147-1.999-1.303-.985.129-2.675-2.387-3.057-.587-2.381-1.561h-1.161l-.808-1.836-.397-2.093.779-1.138-1.117-2.24-2.014-1.359-1.47-1.964 2.146-2.423 1.764-2.515.485-2.203 1.264-3.672 1.47-2.717v-1.652l-3.924-4.755-1.676-1.102-1.117-.092-2.66.624-4.218-.349-1.984.312-3.983-.092-2.778 1.322-.603-2.515-1.367-2.185-1.47-3.341-2.66-2.772-1.279-9.951.265-2.13.705-1.836-2.484-2.534-1.47-.973-8.29-3.947-2.734-.606H35.35l-8.936-4.975-.661-.753-1.47-.312-2.807-1.395-1.661.587-3.777-2.772-3.88-2.993-.456-1.836-1.602-3.562-.367-4.957 1.94-8.096.573-2.919-.617-1.836.206-3.451v-5.618l.897-1.836 1.705-1.616 10.494-19.919 2.043-4.167 1.984-2.515 1.308-4.223v-4.81l3.248-1.579.544.643 2.366-.955v5.067l1.867.973 4.13-.092 2.94.9 1.881 1.561-.176 3.672.162 2.772.426.973-.412 2.093-.779 1.34.162 2.13 1.191 2.791 1.014 3.103.75.477.147 1.505-.661 1.285-.176 1.744-.75 1.193.22 1.322h2.851l1.117.936 2.543.349 1.764-.477 1.602 4.021 1.264.386.985-1.928 3.689-1.414.103-1.836 1.117-1.689-.397-1.083 3.483-.716 2.19 1.726 1.249.33 1.646-.33 1.117-1.193 1.587.294 1.823 1.836.191 1.138-.941 1.561.603 1.303-.911.991-.852 2.735-1.029.569.397 2.093-1.161 1.414-1.249-.239-.647-2.056-1.676-1.175-1.088.734-.867-.753-.132-2.332-.985-.202-4.968 3.672-.647 3.139 1.646 1.377.279-1.303 1.132-1.34.47.955 3.425 2.24.382 1.12 4.159-.202.985 1.322.22 2.534-1.058 3.91.162 1.836-2.205 2.846-3.145 2.405-.485 2.056.867 2.185 1.676-.753 2.058 1.138 5.659-1.744v-2.901l.955-.294.691-3.103.632-.551-.147-1.836.999-1.359.661-1.836.911.11 1.073 2.056 3.116-.679 2.102-1.193.691-1.836-.794-1.046v-1.836l.808-1.028.073-1.836.764-.991-2.308-2.387-.882-.459-.867-3.341 1.382-1.487 3.042.386.676.734 2.131 4.461 1.646.404.47.826 1.705.881.808 2.387 1.793-.716 1.911.312 1.734.9.794 1.322 1.191.569.5 1.01 3.616 2.185 1.646-1.23 1.073.11 1.543-1.248.764 1.414-2.837 1.157-.22 1.377h1.47l.647.936 1.47-1.836 1.47.441 1.793-1.395.588-2.497-.5-1.616-3.028-1.065-.999-2.295 1.014-1.12 1.558.11.823-1.248-.309-2.387.309-1.597-.691-1.561.323-1.065-.676-1.102.514-1.707-.941-1.836.353-3.194-.323-1.193.911-1.12-.661-1.487 1.338-1.01v-1.836l-1.47-1.138h-1.881l-.661 1.248-.808 2.974-2.793-.9-2.425.312-.25-1.836 1.47-1.359-.544-2.735-1.646 1.248-2.028-.9h-3.219l-2.631 1.212-1.602-1.046-2.499-.771-.808-1.34-.706-2.589-1.573-2.332-.367-1.359.353-1.836-.353-2.075.808-.257 1.47-2.13v-1.046l-1.646-1.395 2.058-3.874 1.587-4.645-.176-2.166.823-1.597.867-3.433 1.293-1.836.338-2.625.75-.826 1.382.532 2.028-1.505 2.087-4.131 2.381 1.561 2.94-1.23.088-2.625-1.308-1.193-1.999 2.13-1.117-1.046-.397-1.836-1.102-2.093.118-1.836 1.676-.936-.279-2.423-1.191-.918.294-1.175-1.47-.477-1.631-3.286-1.146-.275-.147-2.68 1.911-1.083.382-2.258-.441-1.836h2.219l1.382.514-.617 1.395 1.352.202.691 1.12v1.671l1.47.881 2.161-.845 1.47.936.852-1.836v-1.469l.617-1.487v-3.066l1.176-1.836h1.146l.779-1.579.294-4.278 1.602-1.432-2.205-4.865.309-.955 2.484 1.138 2.219-.33 1.823-.918.456-1.579-1.132-1.836v-1.836l6.908.294.118 8.225.808 2.019 1.543-1.267v-.863l2.146-2.387 1.044 2.735 3.336.734 1.852-.386v1.689l1.47-.386.588.679 1.97.698v1.028l-.941 1.285-.941 2.864.176 1.322 1.705.789 2.366-.422 1.47.991.382 1.065 1.367.771 2.543 2.515-1.47.863.485 1.836v1.983l-.5 1.689-.073 2.13-1.249 1.469-2.234.789-2.072 2.13.441 2.937-1.279 2.57-1.808-.165-1.47 1.744-.294 1.505-3.322-.22-.338 1.12.162 3.158-1.47 1.065-.353 2.295-2.528.606-1.47-.716v1.561l-.838 2.093 1.955.349 2.675 1.579h.955l1.264 1.23-.5 1.34 1.161 1.561v2.405l1.94 1.487 1.47-.569.426-.936-1.058-2.24 1.661-2.203.338-1.836.985-.863 1.617-.239 1.323-.918.588-1.487 2.058 1.303 2.116-.9 1.955 1.836.647 2.056.764.367 1.088 2.717 1.867 2.093-.132 1.946.999 1.083-.573 1.56 1.308 2.075.882.184-.367 4.92-.632.808v2.277l-1.47 3.672-.22 1.836-1.734-.386-1.308.771-1.146 2.809-.985.734.838 2.075-.706 1.285-.397 2.35-.838.661-2.719 4.094.676 3.194 1.22 1.836 1.073 4.535 2.94 5.508-.309 1.524 1.382 1.046-.147 1.836 2.263 1.561 2.646.826.456 7.068-.559 2.974-1.837.422-1.161-.698-2.396.477-2.205-5.085-1.132 3.525-1.896-.165-2.528 1.065-1.338 2.24 1.161 1.836-.176 2.625-1.323 2.13.25 2.754.867 1.616-.941 1.542-1.573.606-1.881-.698-.235-1.322h-1.47v1.671l-.735 1.524-1.47-2.038-.441-1.836-1.587-.239.353-1.414-.5-1.56-1.367.312-1.646 1.689.294 2.038-1.881.661-.235-1.395-3.66-1.542h-1.352l-.999.789h-1.293l.132 2.956h1.338l.529 1.083-1.396.881-.823 1.432 1.191 1.414 1.102.294-.691 1.524.647 2.772 2.087.863 4.027-.165zm-.941-28.86l-.456-2.57-1.955-.716-2.704 2.387-.5 2.185.882 1.267 2.146 1.01 2.308-.826zm6.467 96.072l-.514-1.414.25-2.038-1.47-1.212c-2.994-1.16-1.554 2.978-2.631 4.535l.661 1.065 1.205-.624 2.043.569z" fill="#450" stroke-width=".821" stroke-linejoin="round"/><g transform="matrix(0 1.835897 -1.469781 0 342.85741 -49.137101)" stroke-linejoin="round" stroke-width=".5"><path d="M115.85 142.22l1.49.19.45 1.57-.55 1.46-.69.6-1.19-.34-1.3-1.84.39-1.33z" fill="#450"/><path d="M161.73 113.64l-1.09.23-2.38.1-2.88-.07-1.87.13-.55 1.43-.62 1-1.72 1.75.15 1.21-1.24 4.26-.46 2.46-.58 1.83.91 1.61-2.26 2.1-1.49 2.1-.75 1.79-.08 1.34-.52.6-2 .29-.87.46-.95 1.12-1.23 1.91-1.25 1.22-.11 1.17-1 .5-1.14 1.54-1.27.1.61-1.6-.24-.5-1.26-.53-.5-.59-.15-.95-1.38-.07-.07-.53.91-.85-.2-1.21h-1.07l-.53-.77 1-.94.94-2.93-.67-1.7.55-.45 1.11.33.64-.38.3-.94.63-.36.54-1.4-.86-.9h-1.28l-.3-1.46 1 .19 2.1.09.39-.29-.44-1.26.4-1.27.09-2.69-.79-4.36v-.5l.88-.63.05-1-.7-1 1-1.33.38-1.26-.6-2-1.06-1.16-.47-.13-.25-2.45-.93-1.46.33-.93-1.38-.83-.74-1.18v-3l-.53-1.2-.63-2.14.42-.69-.15-1.26v-1.26l1-1.17-.27-.71-.85-1 .49-1.77.9-.74 1.2-.45-1.12-2-.67-.72v-.76l-.45-1-.72-2.63-1-.49.36-1.42-.35-1.23.38-1.43 1.8.34.16-3-.62-1.08v-1.57l.79-1.42-.63-.57-.1-1.58-1.06.22-1.29-.38.18-1.15 1-.55.66-1.66.79.3 1.47.1.61-.32-.1-.76 1.08-.83 1.28-.17 1.25.3 3.35 1.74 3.12 2 2.79 2.22 3.64 3.11 2.62 2.51 1 1.25 3.29 3 1.21 1.29 4 3.9 1.42 1.61 1.17 2.12 2.89 3.46.57.9 1.07.58.74.73-.91 1.1-.47 1.34-.8.68-1.94 2.62-1 1.73-1.7 2.32-1.8 1.19-1.05 3.52.52 1.92.27 1.86-.17 3.43z" fill="#668000"/><path d="M131.57 93.37l.15 1.26-.42.69.63 2.14.53 1.2v3l.74 1.18 1.38.83-.33.93.93 1.46.25 2.45.47.13 1.06 1.16.6 2-.38 1.26-1 1.33.7 1-.05 1-.83.61v.6l.79 4.36-.09 2.69-.4 1.27.44 1.26-.39.29-2.1-.09-1-.19.3 1.46h1.28l.86.9-.54 1.4-.63.36-.3.94-.64.38-1.11-.33-.55.45.67 1.7-.94 2.93-1 .94.53.77h1.07l.2 1.21-.91.85.07.53-1.14.68.09 2.74-.47 1.42-1.51.44-.83-.47-.16.75-.77.81-.78-.56-.48-.95-.59.36v.91l-1.61.09v-.88l-.43-.68v-.92l.84-2.49.76-.16-.36-1.28-1.11.2-.92-1.12-.17-.93.85-.34.77.24.13-1.08 1-.3 1.11-1-.83-.5h-1v-1l.72-.16.38-1.28-.33-1.07-.84-.64-.93.49-1.58.17-1.16-.9-1.43-.12-1 .79-1.22-.91-.58-1.72.09-1.29-1.92-.77 2.77-1.5-.26-1.63.38-.79-.23-1.25-1.62-.38-3.85.31-.45 1.8-.85 1.54-1-.1-.57.94-.83-.21-3 2-2.47.73-1 .83-1.74.46-2.24-1.85-.36-.57-1.28-.27-.7-.48-1.13.57-.4-.67-1.53-.78-.42-.89.21-1.18-1-.15-2-1h-1.24l-.44-.43-2.68-.25-.1.6-1.45-.77-.72.12-.28-.62.09-1.17-1.78.42-1.37-1.1-.55-1.16.64-.86-.1-.63.85-.83-1.38-.69 1.26-2.14 2.78-2.91-1.25-.31v-1.65l1.44-.81v-.6l-1-1.3-1.33.45.52-1.19-1.69-2.62-.05-2-1.8 1.2-.64.66-.59-.62-.31-1.47-1.65-1.67-.9.09-2 1.25-2.07.18-.33.68-1 .21-.91.75-1.44-.18-.87-.35-1-.82-.55-1.83 1.86-3.59 4-6.44.58-.17.23-1 4-.75 1.62-.13 1.06.14.26-2.52-.36-.66.5-1-.17-.65 1.38-5.07 2.25-3L80 73.2l.68-1.59.41.43 1.48 3.82-.14.86.61.75h2.3l1.15-1.07 1 .86 2 .56 2.21 1 2.06-.23.65-.94 2.31-.1 1.81-.72.86-.89.5-1.37h.63l.61.66.12.84.74-.18.57.43 1.58-.82.77.51.85-.41.45.34 2.64-.46.61-.77.7.21.89-.43 1.34.27-.86.65.22.52 1.19-.51.49 1.44 1.26.33.54.75-.18 1.07 2 .9 1.34-.42 1.37 1.23-1 .86.33 1.45 1.25.66 1.22.17 1.44.51.29 1.34-.16.83.2 1.26-1.61.67.94 2.58.14 1.81.69.86h1.94l.55-.43h1l.31.93.94-.08.41-.56 1.95.06z" fill="#aad400"/><path d="M84.2 123.71l-1.13.89-.85-.39-.59.68-1.06-.09-1.14 1.27-1.48.74-.2.52-1.12.44-1 1.33.49 1.44-.71 1.4.81.4.5.9.13 1.1.47.67 1 .23 1.2 1.13 1.22-.72.51.29.31 1-.81 1.32h-1.31l-.85.79-.73-.34-.67.86v.65l-.75 1.78-.19 1.33-1.14-.57h-.85l.39-1-.33-1.72-1.25-.24-.58-1-1.72.11-.61-.23.12-2.26-.82-.2-.95-1 .09-1.22-1.4-.87-1.6.3-1.16-1.41-.44-1.48-.8-.85-1.16-.05-.92-.34h-1.08l-1 .33-.47-1-1.37 1.73-.42.93-.58.26-.54 1 .23 1.61-.43 1.16-.72.12-1.56-.64-.7-.64h-.56l-.38 1.34-.37.4.21 1h-.92l.21 1.26-.4 2.27-1.49.71 1.3 1.46h.47l.69 1.05-1.1.55-4.48.08-.74-8.93.82-3.1 1-2.23.35-1.85 1.4-1.36.38-1.83-.94-4.77 1-1.18 1.31-2.31 2.34-1.56 1.2.8 1.92 1.69.91-.13 1.73-2v-.77l-.68-.62 1.09-3.29-.58-1.52 1.83-4.03.06-1-.37-.72-.13-1.27.87-1.82 1.75-.72.44-.45.55 1.83 1 .82.87.35 1.44.18.91-.75 1-.21.33-.68 2.07-.18 2-1.25.9-.09 1.65 1.67.31 1.47.59.62.64-.66 1.85-1.13.05 2 1.69 2.62-.47 1.21 1.33-.45 1 1.3v.6l-1.44.81V111l1.24.27-2.78 2.91-1.26 2.14 1.38.69-.85.83.1.63-.64.86.55 1.16 1.37 1.1 1.78-.42-.09 1.17.31.66.76-.06zm-23.73 40.42l.76.46.09 1.24-.75.82h2.83l1.25 1.25-.3 2.5-.58.77.7.87-1.22.1-1-.33-.45.58h-1.37l-.91-1.24-1.33-.47-1 .46-.31 1.74.51 1.23 1.31 1.44-1 1.46 2.21-.21 1.52 1.2.28.71-.19 2.88.21 1.19-1 .24-.38 1.15-1.83.31-2-.5v-.53L55 179.73l-.79-1-1.1-.78-1.56-.27-.86-2.53-1.68-.68-.93-.08-1-.83-1.1-2.3-1.98-1.13v-2l-2.15-2.22-2.61-2-3.76-1.3-5.56-.56-.67-.14-.56-.84-.35-1.21.6-1.08 1.36-1.57 1-.59-.38-3.27.16-.65 1.4-.94 1.77.36 1.93-.43h1.9l1.23 1.39.85.11 1.22-.88 1.79-.18 2-1.81.28-1.42h1l1-.77.86.31.5 1.24.19 1.52-.67 1.66.52.21 2.65-1.5.78 1.09 2.33.2.86.53v.78l1 .8 1.66.05.81.42h.83l1 .58-.51 1 .55 1.41-.48 1h-.91l-.61.47-.11.92-.76-.42-.28.94v1.51l1-.3 1.23.26z" fill="#8a0"/><path d="M168.18 137.82l.48.35-.31 1.39.34.82-.58.45-.55-.52-.74.21-1.32-.31.14-1.17.66-1 1.11.16z" fill="#d4ff2a"/><path d="M84.64 212.69l-1-.19-5.68.11-.92-.13h-2.52l-1.42-1.12v-1.63l-.35-.17-2.27-2.39.08-4.3.66-.82-.37-1.95.34-1-4.44-1.48h-1.32l-1.38 1.14-.75-.41-.49-.92.29-1.05-2.81-1.89v-.84l-1.8-2.87-.16-1.31.18-.74-.27-1.1-.72-.69-.95-2-.1-1 2 .5 1.83-.31.4-1.13 1-.24-.21-1.19.19-2.88-.28-.71-1.51-1.26-2.21.21 1-1.46-1.31-1.44-.51-1.23.31-1.74 1-.46 1.33.47.91 1.24h1.37l.45-.58 1 .33 1.22-.1-.7-.87.58-.77.3-2.5-1.25-1.25h-2.81l.75-.82-.09-1.24-.76-.46 1.46-.1.15-.78 1.79-1.11.26-1 .64.2.5-.81 1.32-.19.51 1.14 1 .08 1.14-.75 1-.27.57-.76-1.16-1.36.65-.89 1.43.06.67 2-.85 1.62 2.25 1.42.82 1.38-.29.94.45.51 1.43.23 1 .88 1.87.59.87.56 1.18-.12 2.53 1.08 2.11 1.4.76-1.12h.57l1.16 1 .14.55 1.13-.24 1 .24.74-.25 1.27-1.07 1.41-.48.73-.55.42-1.7.57-1.09-.67-1.73v-2.19l.49-1.38-.68-1.12 1.49-.37.74 1 1-.17-.17-1.65.49-1.9-1.62-.55-.68-.45v-1.28l.62-1h1l.55.91.77-.41.59.7.65-.22 1.74.24 1-.64.91.28.6-.46.58.22.85-.47.87.21 1.3-.21.68.56-.06 1.06.61.69 1.25-.68.58-2.06.88-.34 1.36.4.76 1.22-.24 1 1 1-.51.44v1l-.75-.15-.63-1.93-.77.52.68 1.05-.06.73.67 1.12-1.19 2.46-.55.34-.31.81-.72.54-.49 1.18-.17 1.3.39 1.22-1.3.55-.48 1.16-.45.32-.22 1.12-2.43 1.45-.4.46-.21 2.07.81.94 1.82-.59.25-.6 1.33-1.58.54.52 1 .05.56.55h1l.57-.54 1 .47.65 1.43.37 2.12-1.12.73-.06.62 1 .45.74.68 1-.1.3.43 1.69.47.16.65h1.58l.95 3.85-.62 1.4.41 1.14-1.19.59-1.12-.33-1.31-2.14-1.55-1.5-1 .11-2.13-.72-1.38.15-.72.67.11 2.83-.61.26-1.22 2.33-.52.32.73.77.71.19L109 191l-1.67-.37-2-3.38.11-.67 1.27-.09.41-.59-.4-.74.64-1.14 1.12-.44.13-.85-.77-.79-1.14.27-.31-.7-1.49-.58-.54-.62-.71.41-.85-.64-.62.13-1 1.24-.16 1.08.65.76.18 1.12-.18.85-.94 1.49.39 2.37.59-.27.92.76 1 .07.77 2.51 1.05.67-.21.86-2.24 1.08.26 1.2-.19 1.73-.51.76v1.94l-.72.15-.65-.51-.95-.12-.7-.45-.82.1-.26.51-1.69.69-1.52.81-1.16.11-.73-.53-1.14-.28-.53.29-1.51.11-2-.12-.85 1.28-.49 2 .05 2.81-.53 1.27H83.6l.52 1.61-.35.37z" fill="#aad400"/><path d="M134.09 61.49l.1.76-.61.32-1.47-.1-.79-.3-.66 1.66-1 .55-.18 1.15 1.29.38 1.06-.22.1 1.58.63.57-.79 1.42v1.47l.62 1.08-.16 3-1.8-.34-.34 1.53.36 1.32-.36 1.42 1 .49.72 2.63.45 1v.76l.67.72 1.12 2-1.2.45-.9.74-.49 1.77.85 1 .27.71-1 1.17v1.26l-.85.31-1.95-.06-.41.56-.94.08-.31-.93h-1l-.55.43h-1.94l-.69-.86-.14-1.81-.94-2.58 1.61-.67-.2-1.26.16-.83-.29-1.34-1.44-.51-1.22-.17-1.25-.66-.33-1.45 1-.86-1.37-1.23-1.34.42-2-.9.11-1.12-.54-.75-1.26-.33-.5-1.43-1.19.51-.22-.52.86-.65-1.34-.27-.89.43-.7-.21-.61.77-2.64.46-.45-.34-.85.41-.77-.51-1.58.82-.57-.43-.74.18-.12-.84-.61-.66H100L99.46 76l-.86.89-1.81.72-2.31.1-.65.94-2.06.23-2.21-1-2-.56-1-.86-1.15 1.07h-2.3l-.61-.75.14-.86L81.11 72l-.41-.43.5-1.16-.61-1.77 1.61-4.87 1.26-.43.75.17.92-.33h1.76l1.61.46.58.57 1.23-.21.16-1 .52-1.1 1.18-.47 1.45-.09.43.48 1-.91h1.3l.9.41 1.84-.88.81-1.81.89-.45v-1.27l.76-1.06.65.08 1-.69.47.23.71 1.42 2 .93.56-.22 1.11.34v.8l1.48 1.92.89.35.4.81 2.55-.35 1.31-.48h1.38l.82-.49.86-.08 1-.62.74-1.37h1.12l1.56.33.39.65-.08 1.73.43.93.78-.29.19-1 .77-.83 1.94.38-.23-1.43.38-1.11 1.1.1.81.93 1.21.87.87.16.39.61 1.21.58.78.71zm-7.21 13.21l-.87.16-.24.9.92.55z" fill="#222b00"/></g></svg>