<?xml version="1.0" encoding="UTF-8"?>
<svg id="Layer_2" data-name="Layer 2" xmlns="http://www.w3.org/2000/svg" viewBox="0 0 21.17 21.17">
  <defs>
    <style>
      .cls-1 {
        fill: #83a179;
      }

      .cls-2 {
        fill: #8cc761;
      }

      .cls-3 {
        fill: #578f40;
      }
    </style>
  </defs>
  <g id="Layer_1-2" data-name="Layer 1">
    <g>
      <path class="cls-3" d="M4.73,13.6c-.46-.9-.73-1.92-.73-3.01,0-3.64,2.96-6.6,6.6-6.6s6.32,2.69,6.57,6.1h4C20.91,4.49,16.27,0,10.6,0S0,4.75,0,10.6c0,1.85,.48,3.59,1.31,5.1l3.42-2.09Z"/>
      <path class="cls-1" d="M17.17,11.1c-.24,3.24-2.83,5.83-6.07,6.07v4c5.44-.26,9.82-4.63,10.07-10.07h-4Z"/>
      <path class="cls-2" d="M10.1,17.17c-1.99-.15-3.73-1.19-4.84-2.72l-3.42,2.09c1.82,2.67,4.83,4.46,8.26,4.62v-4Z"/>
    </g>
  </g>
</svg>