<svg xmlns="http://www.w3.org/2000/svg" viewBox="0 0 17.24 15.77"><defs><style>.cls-1{fill:none;}.cls-2{fill:green;}.cls-3{fill:#578f40;}.cls-4{fill:#afd3a1;}.cls-5{fill:#8dc862;}.cls-6{fill:#83a178;}</style></defs><g id="Camada_2" data-name="Camada 2"><g id="Layer_1" data-name="Layer 1"><path id="path10" class="cls-1" d="M16.55,0H.69a.71.71,0,0,0-.6,1.06l5,8.93v5.08a.69.69,0,0,0,.68.7h5.65a.69.69,0,0,0,.69-.7V10l5-8.93A.7.7,0,0,0,16.55,0Zm-6,14.19H6.65V10.93h3.94v3.26Zm.2-5-.18.32h-4L6.44,9.2,4.79,6.26h7.65Zm2.45-4.35H4L2.17,1.59h12.9Z"/><path id="path55" class="cls-2" d="M5.55,15.72a.8.8,0,0,1-.37-.36l0-.12V10L2.59,5.48C1.2,3,.06,1,0,.91a.93.93,0,0,1,0-.52A.82.82,0,0,1,.4.07L.49,0H16.74l.11.06a.81.81,0,0,1,.33.38.8.8,0,0,1,0,.55c0,.05-1.17,2.09-2.55,4.53L12.12,10v5.25l-.07.14a.7.7,0,0,1-.36.34,21.57,21.57,0,0,1-3.07,0,21.61,21.61,0,0,1-3.06,0Zm5.05-3.16V10.92h-4V14.2h4Zm.93-4.66c.5-.89.91-1.62.91-1.63s-1.58,0-3.83,0c-3.63,0-3.82,0-3.81,0s1.69,3,1.78,3.18l0,.07h4Zm2.63-4.68c.5-.89.91-1.63.91-1.64H2.16s.41.75.92,1.64L4,4.85h9.26Z"/><path id="path59" class="cls-3" d="M6.05,15.74c-.47,0-.48,0-.57-.07a.65.65,0,0,1-.29-.32l-.06-.1V10L4,8C.35,1.49,0,.93,0,.81A.85.85,0,0,1,.09.39,1.17,1.17,0,0,1,.38.09L.47,0H16.75l.09.06a.83.83,0,0,1,.32.35.8.8,0,0,1,0,.53c0,.09-1.45,2.61-4,7.16l-1,1.84v1.9c0,1,0,2.23,0,2.64v.74l0,.11a.8.8,0,0,1-.31.32c-.07,0-.13.05-.45.06s-4.52,0-5.24,0Zm4.55-3.18V10.92h-4V14.2h4Zm0-3.06c0-.06,1.8-3.21,1.8-3.24s-7.61,0-7.61,0L6.6,9.5S10.62,9.52,10.64,9.5Zm4.43-7.91H2.17S4,4.85,4,4.85h9.27S15,1.61,15.07,1.59Z"/><path id="path61" class="cls-4" d="M6.65,12.56V10.94h3.93v3.24H6.65Z"/><path id="path65" class="cls-5" d="M2.16,1.62c.17,0,12.91,0,12.91,0s-.42.77-.92,1.64L13.3,4.88,4,4.85"/><path id="path67" class="cls-6" d="M4.79,6.26h7.65l-1.85,3.3-4,0-.14-.25"/></g></g></svg>