<?xml version="1.0" encoding="UTF-8" standalone="no"?>
<svg
   xmlns:dc="http://purl.org/dc/elements/1.1/"
   xmlns:cc="http://creativecommons.org/ns#"
   xmlns:rdf="http://www.w3.org/1999/02/22-rdf-syntax-ns#"
   xmlns:svg="http://www.w3.org/2000/svg"
   xmlns="http://www.w3.org/2000/svg"
   xmlns:sodipodi="http://sodipodi.sourceforge.net/DTD/sodipodi-0.dtd"
   xmlns:inkscape="http://www.inkscape.org/namespaces/inkscape"
   id="Layer_2"
   data-name="Layer 2"
   viewBox="0 0 18.96 17.97"
   version="1.1"
   sodipodi:docname="funnel.svg"
   inkscape:version="0.92.3 (2405546, 2018-03-11)">
  <metadata
     id="metadata36">
    <rdf:RDF>
      <cc:Work
         rdf:about="">
        <dc:format>image/svg+xml</dc:format>
        <dc:type
           rdf:resource="http://purl.org/dc/dcmitype/StillImage" />
        <dc:title />
      </cc:Work>
    </rdf:RDF>
  </metadata>
  <sodipodi:namedview
     pagecolor="#ffffff"
     bordercolor="#666666"
     borderopacity="1"
     objecttolerance="10"
     gridtolerance="10"
     guidetolerance="10"
     inkscape:pageopacity="0"
     inkscape:pageshadow="2"
     inkscape:window-width="1920"
     inkscape:window-height="1057"
     id="namedview34"
     showgrid="false"
     inkscape:zoom="17.471086"
     inkscape:cx="-14.697369"
     inkscape:cy="5.765477"
     inkscape:window-x="-8"
     inkscape:window-y="-8"
     inkscape:window-maximized="1"
     inkscape:current-layer="Layer_2" />
  <defs
     id="defs4">
    <style
       id="style2">
      .cls-1 {
        fill: #578f40;
      }

      .cls-2 {
        fill: #b7d883;
        opacity: .8;
      }
    </style>
  </defs>
  <text
     xml:space="preserve"
     style="font-style:normal;font-weight:normal;font-size:40px;line-height:1.25;font-family:sans-serif;letter-spacing:0px;word-spacing:0px;fill:#000000;fill-opacity:1;stroke:none"
     x="-16.218685"
     y="12.106906"
     id="text73"><tspan
       sodipodi:role="line"
       id="tspan71"
       x="-16.218685"
       y="48.600117" /></text>
  <path
     style="stroke-width:0.02178772"
     inkscape:connector-curvature="0"
     d="M 17.469241,1.2118143 H 1.6058774 c -0.5279078,0 -0.85758722,0.5882199 -0.5925603,1.0574683 L 6.025297,11.200438 v 5.080238 c 0,0.389938 0.3059753,0.704976 0.6852091,0.704976 h 5.6540949 c 0.379245,0 0.68522,-0.315038 0.68522,-0.704976 V 11.200438 L 18.063947,2.2692826 C 18.326828,1.8000342 17.997095,1.2118143 17.469241,1.2118143 Z M 11.507014,15.39946 H 7.5681041 v -3.260514 h 3.9410669 v 3.260514 z m 0.206856,-4.992118 -0.181006,0.321642 H 7.540097 L 7.3590914,10.407342 5.7107049,7.4684814 H 13.364413 Z M 14.155213,6.05852 H 4.9199055 L 3.0883566,2.7980057 H 15.986762 Z"
     id="path10" />
  <path
     style="fill:#008000;stroke-width:0.02023649"
     d="M 6.4670922,16.927867 C 6.3252577,16.873334 6.1731694,16.726359 6.1026794,16.575705 L 6.0458679,16.454287 6.0357497,13.813425 6.0256314,11.172564 3.5084026,6.690495 C 2.1239267,4.2253572 0.97767009,2.1687955 0.96116572,2.1203578 0.9153404,1.9858679 0.93529401,1.7454213 1.0039202,1.6051544 1.0645912,1.4811473 1.1904337,1.3545336 1.3236959,1.283419 l 0.088017,-0.04697 h 8.124949 8.1249491 l 0.108232,0.05995 c 0.142042,0.078678 0.273658,0.2277036 0.327706,0.3710544 0.05894,0.1563372 0.04935,0.4153985 -0.02038,0.5504654 -0.02586,0.050085 -1.170244,2.0918731 -2.543079,4.5373061 l -2.496064,4.4462421 -0.0053,2.626841 -0.0053,2.626842 -0.06651,0.135099 c -0.07985,0.162181 -0.20652,0.281011 -0.361295,0.33892 -0.108786,0.0407 -0.142036,0.04114 -3.0688043,0.04009 -2.9057163,-0.001 -2.9607104,-0.0018 -3.0637513,-0.0414 z M 11.519837,13.772952 V 12.133797 H 9.5366617 7.5534861 v 1.639155 1.639156 h 1.9831756 1.9831753 z m 0.933902,-4.6615638 c 0.49919,-0.888785 0.907619,-1.6241283 0.907619,-1.6340962 0,-0.01061 -1.586575,-0.018123 -3.8268614,-0.018123 -3.6362095,0 -3.8261978,0.00176 -3.8135493,0.035414 0.012537,0.033352 1.6909921,3.035977 1.7760574,3.177227 l 0.039667,0.06587 2.0047246,-0.0052 2.0047247,-0.0052 z m 2.624888,-4.6754334 c 0.50241,-0.8947928 0.913474,-1.6324127 0.913474,-1.6391552 0,-0.00674 -2.904948,-0.012259 -6.4554393,-0.012259 -3.5504914,0 -6.4554389,0.00474 -6.4554389,0.010533 0,0.00579 0.4116997,0.7434132 0.9148882,1.6391554 l 0.9148883,1.628622 h 4.6270765 4.6270772 z"
     id="path55"
     inkscape:connector-curvature="0" />
  <path
     style="fill:#008000;stroke-width:0.02023649"
     d="M 6.966628,16.951106 C 6.4959134,16.940076 6.490126,16.939407 6.3983138,16.885432 6.2816944,16.816873 6.1739082,16.698458 6.1058246,16.564101 L 6.0530622,16.45998 6.0416573,13.816272 6.0302524,11.172564 4.9169412,9.1893882 C 1.2747331,2.7014113 0.96322165,2.1387816 0.9466943,2.0186135 0.93150077,1.9081433 0.96458641,1.6928102 1.0103514,1.6043105 1.0558984,1.5162324 1.1976873,1.3688755 1.2993148,1.3039996 l 0.089967,-0.057432 H 9.531961 17.67464 l 0.08746,0.051255 c 0.117646,0.068945 0.267149,0.2322371 0.319601,0.3490785 0.06032,0.1343773 0.06035,0.4005039 6.1e-5,0.5348181 -0.03948,0.087954 -1.450308,2.6102308 -4.006897,7.1635506 l -1.030598,1.8355102 -0.01345,1.898122 c -0.0074,1.043966 -0.01346,2.233085 -0.01346,2.642485 l -1.9e-5,0.744363 -0.05186,0.102336 c -0.06632,0.130876 -0.196742,0.272348 -0.301372,0.326906 -0.07076,0.0369 -0.132609,0.04467 -0.45623,0.05737 -0.425219,0.01668 -4.5176005,0.0157 -5.24125,-0.0013 z m 4.553209,-3.178154 V 12.133797 H 9.5366617 7.5534861 v 1.639155 1.639156 h 1.9831756 1.9831753 z m 0.03558,-3.060768 c 0.04687,-0.0584 1.805938,-3.2102816 1.805938,-3.2358678 0,-0.020324 -7.5624551,-0.020685 -7.6137502,-3.622e-4 -0.030117,0.011932 0.011738,0.09846 0.2905243,0.600613 0.5475647,0.98628 1.4586643,2.608828 1.4799628,2.635618 0.015845,0.01993 0.4440183,0.02529 2.0185668,0.02529 1.5744463,0 2.0027643,-0.0054 2.0187583,-0.02529 z m 3.166587,-5.6308024 c 0.766291,-1.3645863 1.24955,-2.2320198 1.262968,-2.2669884 0.01008,-0.026274 -0.762889,-0.029853 -6.4483133,-0.029853 -5.5928421,0 -6.4582789,0.00388 -6.4486656,0.028935 0.00998,0.026016 0.9333687,1.6776286 1.5706128,2.8092754 l 0.2478747,0.440187 4.6350276,-0.0051 4.6350278,-0.0051 z"
     id="path59"
     inkscape:connector-curvature="0" />
  <path
     style="fill:#83a179;stroke-width:0.02023649;fill-opacity:1"
     d="m 7.5737226,13.772952 v -1.618919 h 1.9629391 1.9629393 v 1.618919 1.618919 H 9.5366617 7.5737226 Z"
     id="path61"
     inkscape:connector-curvature="0" />
  <path
     style="fill:#88aa00;stroke-width:0.02023649"
     d="M 6.6479034,9.1192486 C 6.1553979,8.2406797 5.7524389,7.5123003 5.7524389,7.5006278 c 0,-0.01473 1.1608413,-0.021223 3.794729,-0.021223 h 3.7947291 l -0.04592,0.088011 c -0.02526,0.048406 -0.432943,0.7768413 -0.905971,1.6187446 L 11.529956,10.716894 9.5366617,10.716773 7.5433679,10.716652 6.6479034,9.1192533 Z"
     id="path63"
     inkscape:connector-curvature="0" />
  <path
     style="fill:#578f40;stroke-width:0.02023649;fill-opacity:1"
     d="M 4.8865414,5.9768896 C 4.8003365,5.8334657 3.1434666,2.8733176 3.1308516,2.8401908 c -0.012826,-0.033681 0.3004451,-0.035414 6.403645,-0.035414 3.6316524,0 6.4171314,0.00765 6.4171314,0.017628 0,0.0097 -0.403408,0.7359325 -0.896463,1.6138597 l -0.896462,1.5962314 -4.6163026,0.0051 -4.6163026,0.0051 z"
     id="path65"
     inkscape:connector-curvature="0" />
  <path
     style="fill:#8cc761;stroke-width:0.02023649;fill-opacity:1"
     d="M 7.4156019,10.469445 C 7.2339543,10.148491 6.2900998,8.4594212 5.9957916,7.9286314 5.8705067,7.7026781 5.7717865,7.5140215 5.7764134,7.5093946 c 0.00463,-0.00463 1.7055749,-0.014766 3.7798844,-0.02253 3.4418222,-0.012884 3.7703932,-0.011307 3.7591312,0.018042 -0.01044,0.027209 -0.711312,1.2817602 -1.568505,2.8076064 l -0.221685,0.394612 -1.9846407,0.0052 -1.9846404,0.0052 z"
     id="path67"
     inkscape:connector-curvature="0" />
</svg>
