<?xml version="1.0" encoding="UTF-8" standalone="no"?>
<svg
   xmlns:dc="http://purl.org/dc/elements/1.1/"
   xmlns:cc="http://creativecommons.org/ns#"
   xmlns:rdf="http://www.w3.org/1999/02/22-rdf-syntax-ns#"
   xmlns:svg="http://www.w3.org/2000/svg"
   xmlns="http://www.w3.org/2000/svg"
   xmlns:sodipodi="http://sodipodi.sourceforge.net/DTD/sodipodi-0.dtd"
   xmlns:inkscape="http://www.inkscape.org/namespaces/inkscape"
   id="Layer_2"
   data-name="Layer 2"
   viewBox="0 0 21.17 21.17"
   version="1.1"
   sodipodi:docname="histogram2dcontour.svg"
   inkscape:version="0.92.3 (2405546, 2018-03-11)">
  <metadata
     id="metadata85">
    <rdf:RDF>
      <cc:Work
         rdf:about="">
        <dc:format>image/svg+xml</dc:format>
        <dc:type
           rdf:resource="http://purl.org/dc/dcmitype/StillImage" />
        <dc:title />
      </cc:Work>
    </rdf:RDF>
  </metadata>
  <sodipodi:namedview
     pagecolor="#ffffff"
     bordercolor="#666666"
     borderopacity="1"
     objecttolerance="10"
     gridtolerance="10"
     guidetolerance="10"
     inkscape:pageopacity="0"
     inkscape:pageshadow="2"
     inkscape:window-width="1920"
     inkscape:window-height="1057"
     id="namedview83"
     showgrid="false"
     inkscape:zoom="43.966839"
     inkscape:cx="10.671469"
     inkscape:cy="10.211685"
     inkscape:window-x="-8"
     inkscape:window-y="-8"
     inkscape:window-maximized="1"
     inkscape:current-layer="g6301" />
  <defs
     id="defs71">
    <style
       id="style69">
      .cls-1 {
        fill: #83a179;
      }

      .cls-2 {
        fill: #8cc761;
      }

      .cls-3 {
        fill: #578f40;
      }
    </style>
  </defs>
  <g
     id="Layer_1-2"
     data-name="Layer 1">
    <g
       id="g6301"
       transform="matrix(0.87275659,0,0,0.87275659,83.684163,-53.944136)">
      <path
         id="path6253"
         d="m -84.183179,62.794062 -0.392231,0.04707 -0.407921,0.109824 -0.345163,0.156893 -0.04707,0.03138 -0.392231,0.235338 -0.251028,0.188272 -0.156892,0.125514 -0.345164,0.313785 -0.04707,0.06276 -0.376541,0.392231 -0.01569,0.01569 -0.392231,0.439299 -0.40792,0.42361 -0.01569,0.03138 -0.376541,0.360853 -0.07845,0.07845 -0.313785,0.298096 -0.172581,0.156892 -0.235339,0.188271 -0.282406,0.266717 -0.109825,0.09414 -0.392231,0.345163 -0.407921,0.376542 -0.07845,0.07845 -0.313785,0.313785 -0.156892,0.125514 -0.235339,0.251028 -0.20396,0.20396 -0.188271,0.203961 -0.251028,0.251028 -0.156893,0.156892 -0.266717,0.282406 -0.125514,0.156893 -0.282406,0.313785 -0.109825,0.125514 -0.266717,0.313785 -0.141203,0.188271 -0.156893,0.251028 -0.235339,0.392231 -0.03138,0.06276 -0.20396,0.454988 -0.156893,0.439299 v 0.03138 l -0.109825,0.42361 -0.09413,0.454988 -0.06276,0.439299 -0.04707,0.454988 -0.03138,0.454988 -0.03138,0.439299 v 0.454989 l -0.01569,0.454988 V 76.6006 l 0.03138,0.454988 0.04707,0.439299 0.06276,0.454988 0.09414,0.454988 0.109824,0.439299 0.04707,0.156893 0.07845,0.298095 0.156893,0.454988 0.156892,0.439299 v 0.04707 l 0.141204,0.407921 0.156892,0.439298 0.09414,0.298096 0.06276,0.156892 0.156892,0.454989 0.188271,0.439299 0.20396,0.454987 0.188271,0.313786 0.09414,0.141203 0.313784,0.345163 0.09414,0.09414 0.298096,0.235338 0.360852,0.219649 h 0.03138 l 0.392231,0.188272 0.392231,0.125514 0.407921,0.109825 0.125514,0.03138 0.266717,0.04707 0.392231,0.09413 0.40792,0.06276 0.392232,0.07845 0.392231,0.07845 0.376542,0.07845 h 0.01569 l 0.40792,0.109825 0.392231,0.109824 0.392232,0.109825 0.40792,0.125515 0.392231,0.109823 0.392231,0.109825 0.407921,0.07845 0.392231,0.04707 h 0.392231 l 0.392231,-0.04707 0.407921,-0.07845 0.392231,-0.109825 0.282406,-0.109823 0.109826,-0.03138 0.40792,-0.141203 0.39223,-0.141204 0.392232,-0.125514 h 0.01569 l 0.376542,-0.109825 0.40792,-0.109825 0.392232,-0.09414 0.392231,-0.09413 0.235338,-0.04707 0.156892,-0.04707 0.407922,-0.07845 0.39223,-0.07845 0.392231,-0.09413 0.407921,-0.109825 0.156893,-0.04707 0.235338,-0.06276 0.392231,-0.141203 0.407921,-0.156892 0.156892,-0.09414 0.235339,-0.125515 0.392231,-0.266717 0.07845,-0.04707 0.313785,-0.298096 0.156893,-0.156893 0.251028,-0.313784 0.07845,-0.141203 0.266717,-0.439299 0.04707,-0.125515 0.156894,-0.313784 0.156892,-0.470678 0.07845,-0.313785 0.04707,-0.125513 0.109825,-0.454989 0.07845,-0.439299 0.07845,-0.470677 0.04707,-0.439299 0.04707,-0.345163 v -0.09414 l 0.06276,-0.470678 0.03138,-0.439298 0.04707,-0.439299 0.03138,-0.470678 0.03138,-0.439299 0.03138,-0.439298 0.01569,-0.470678 v -0.862908 l -0.03138,-0.454989 -0.04707,-0.454988 -0.07845,-0.439299 -0.09414,-0.454988 v -0.03138 l -0.109825,-0.42361 -0.156892,-0.439299 -0.141203,-0.313785 -0.06276,-0.141203 -0.251028,-0.454988 -0.07845,-0.125514 -0.251028,-0.313785 -0.156892,-0.172582 -0.298095,-0.282406 -0.07845,-0.07845 -0.407921,-0.266717 -0.219649,-0.109825 -0.172582,-0.07845 -0.392231,-0.156893 -0.407921,-0.09413 -0.392231,-0.06276 -0.360853,-0.04707 h -0.03138 l -0.407921,-0.06276 -0.392231,-0.04707 -0.39223,-0.07845 -0.392232,-0.09414 -0.40792,-0.156892 h -0.04707 l -0.345164,-0.21965 -0.313786,-0.251027 -0.07845,-0.07845 -0.266717,-0.360852 -0.141203,-0.282407 -0.06276,-0.156892 -0.141204,-0.470678 -0.109824,-0.439299 -0.07845,-0.313785 -0.03138,-0.141203 -0.125514,-0.439299 -0.156892,-0.470677 -0.07845,-0.141203 -0.156892,-0.298096 -0.235338,-0.392231 -0.04707,-0.04707 -0.360851,-0.42361 -0.03138,-0.03138 -0.360853,-0.298095 -0.251028,-0.156894 -0.156893,-0.07845 -0.392231,-0.156892 -0.392231,-0.07845 h -0.392231 z"
         style="fill:#578f40;fill-opacity:0.3019608;stroke-width:0.15689246"
         inkscape:connector-curvature="0" />
      <path
         id="path6255"
         d="m -84.983331,67.061538 -0.376542,0.09413 h -0.01569 l -0.392231,0.156893 -0.40792,0.188271 -0.21965,0.109824 -0.156892,0.06276 -0.407921,0.188271 -0.40792,0.188271 -0.392231,0.203961 -0.392231,0.235338 -0.03138,0.01569 -0.360853,0.251028 -0.282406,0.203961 -0.125514,0.07845 -0.392231,0.345163 -0.03138,0.01569 -0.360852,0.345164 -0.109825,0.109825 -0.298096,0.298095 -0.141203,0.156893 -0.251028,0.282406 -0.125514,0.156893 -0.266717,0.345163 -0.09414,0.109825 -0.313785,0.454988 -0.251027,0.439299 -0.141204,0.313785 -0.06276,0.141203 -0.156892,0.454988 -0.125514,0.439299 -0.04707,0.21965 -0.04707,0.235338 -0.06276,0.454988 -0.03138,0.439299 -0.01569,0.454989 v 0.454988 l 0.03138,0.439298 0.03138,0.454989 0.07845,0.454988 0.01569,0.09414 0.07845,0.345163 0.125514,0.454988 0.156893,0.454988 0.03138,0.109825 0.141204,0.329474 0.18827,0.454988 0.07845,0.156893 0.141203,0.298095 0.219649,0.439299 0.03138,0.04707 0.219649,0.407921 0.172582,0.282405 0.109825,0.156893 0.282406,0.392232 0.06276,0.06276 0.345164,0.345164 0.125514,0.109825 0.266717,0.188271 0.392231,0.251028 h 0.03138 l 0.376542,0.156892 0.392232,0.156893 0.392231,0.125513 0.07845,0.01569 0.313785,0.07845 0.40792,0.09414 0.392231,0.07845 0.392232,0.06276 0.40792,0.06276 0.392231,0.06276 h 0.125514 l 0.266717,0.04707 0.407921,0.03138 0.392231,0.03138 h 1.584614 l 0.392232,-0.01569 0.40792,-0.03138 0.39223,-0.03138 0.188272,-0.01569 0.20396,-0.01569 0.392231,-0.04707 0.40792,-0.06276 0.392232,-0.07845 0.392231,-0.07845 0.40792,-0.109824 0.156892,-0.06276 0.23534,-0.06276 0.39223,-0.156893 0.392231,-0.188271 0.07845,-0.04707 0.313786,-0.188271 0.376541,-0.251028 0.03138,-0.03138 0.392231,-0.376541 0.04707,-0.04707 0.345164,-0.454988 v -0.01569 l 0.251028,-0.423609 0.156892,-0.376543 0.03138,-0.07845 0.141203,-0.439299 0.109825,-0.470677 0.07845,-0.439299 0.03138,-0.20396 0.04707,-0.235339 0.04707,-0.470678 0.04707,-0.439298 0.03138,-0.439299 0.01569,-0.470678 V 75.70632 l -0.04707,-0.470678 -0.09414,-0.439299 -0.04707,-0.188271 -0.07845,-0.251028 -0.172581,-0.454988 -0.141203,-0.266717 -0.109825,-0.188271 -0.282406,-0.360853 -0.07845,-0.07845 -0.313786,-0.313785 -0.188271,-0.141203 -0.219649,-0.156892 -0.392231,-0.235339 -0.09414,-0.06276 -0.313786,-0.156893 -0.392231,-0.172581 -0.235338,-0.109825 -0.156892,-0.06276 -0.392232,-0.172582 -0.40792,-0.156892 -0.141203,-0.06276 -0.251028,-0.109825 -0.392232,-0.156892 -0.40792,-0.156893 -0.06276,-0.03138 -0.313785,-0.156893 -0.407921,-0.156892 -0.251027,-0.125514 -0.156893,-0.07845 -0.39223,-0.235339 -0.21965,-0.141203 -0.172582,-0.125514 -0.392231,-0.313785 -0.407921,-0.42361 -0.03138,-0.03138 -0.313785,-0.454989 -0.04707,-0.09413 -0.219649,-0.360853 -0.172582,-0.376542 -0.04707,-0.06276 -0.345163,-0.439298 h -0.03138 z"
         style="fill:#578f40;fill-opacity:0.3019608;stroke-width:0.15689246"
         inkscape:connector-curvature="0" />
      <path
         id="path6257"
         d="m -86.567945,70.419037 h -0.392231 l -0.40792,0.07845 -0.392231,0.141203 -0.235339,0.109825 -0.156892,0.09414 -0.392232,0.298096 -0.07845,0.06276 -0.313785,0.313785 -0.125514,0.141203 -0.282406,0.360853 -0.06276,0.07845 -0.266717,0.454988 -0.06276,0.156893 -0.125514,0.298095 -0.156893,0.439299 -0.09414,0.454988 -0.03138,0.235339 -0.01569,0.219649 v 0.439299 l 0.01569,0.298096 0.01569,0.156893 0.09414,0.454988 0.109825,0.439298 0.156892,0.454989 0.03138,0.07845 0.156892,0.376542 0.20396,0.439299 0.03138,0.06276 0.20396,0.392231 0.188271,0.360853 0.04707,0.09414 0.266717,0.439299 0.09413,0.156893 0.188271,0.298095 0.203961,0.282406 0.125513,0.156893 0.266718,0.313785 0.141203,0.156893 0.251028,0.219649 0.298096,0.21965 0.109824,0.06276 0.392231,0.251027 0.266718,0.125514 0.125514,0.06276 0.40792,0.172581 0.392231,0.156893 0.188271,0.06276 0.20396,0.06276 0.407921,0.109825 0.392231,0.109825 0.392231,0.07845 0.392231,0.07845 h 0.141203 l 0.266718,0.04707 0.392231,0.04707 0.392232,0.03138 h 0.80015 l 0.392232,-0.01569 0.392231,-0.04707 0.266717,-0.04707 0.141203,-0.03138 0.392232,-0.109825 0.392231,-0.141203 0.39223,-0.156892 v -0.01569 l 0.407922,-0.251028 0.266716,-0.20396 0.125514,-0.109824 0.313785,-0.329474 0.07845,-0.109825 0.23534,-0.345164 0.156892,-0.329474 0.06276,-0.109825 0.156892,-0.470677 0.125515,-0.439299 0.06276,-0.345163 0.01569,-0.09414 0.06276,-0.470678 0.03138,-0.439298 v -0.439299 l -0.01569,-0.470678 -0.06276,-0.439299 -0.03138,-0.141203 -0.06276,-0.313784 -0.156893,-0.439299 -0.172582,-0.345164 -0.06276,-0.109825 -0.298095,-0.439299 -0.04707,-0.04707 -0.345163,-0.407921 -0.04707,-0.03138 -0.39223,-0.360853 -0.06276,-0.06276 -0.329474,-0.235339 -0.313785,-0.20396 -0.09414,-0.06276 -0.392231,-0.235338 -0.298096,-0.156893 -0.09414,-0.04707 -0.40792,-0.188271 -0.392231,-0.156892 -0.125514,-0.06276 -0.266718,-0.09414 -0.39223,-0.156892 -0.40792,-0.109825 -0.298097,-0.07845 -0.09413,-0.03138 -0.392231,-0.125514 -0.407921,-0.109825 -0.392231,-0.125514 -0.20396,-0.06276 -0.188271,-0.06276 -0.392231,-0.156893 -0.407921,-0.125514 -0.282406,-0.109824 -0.109825,-0.03138 -0.392231,-0.141203 -0.40792,-0.09414 z"
         style="fill:#578f40;fill-opacity:0.3019608;stroke-width:0.15689246"
         inkscape:connector-curvature="0" />
      <path
         id="path6259"
         d="m -84.183179,72.772424 h -0.392231 l -0.407921,0.04707 -0.392231,0.06276 -0.392231,0.109825 h -0.04707 l -0.360852,0.188271 -0.313785,0.266717 -0.07845,0.09414 -0.219649,0.360852 -0.125514,0.454988 -0.03138,0.439299 v 0.454989 l 0.04707,0.454988 0.07845,0.439298 0.09414,0.454989 0.125514,0.454988 0.03138,0.09414 0.109825,0.345163 0.156893,0.454988 0.125514,0.251028 0.09414,0.20396 0.266717,0.439299 0.04707,0.06276 0.282406,0.392231 0.109825,0.109825 0.329474,0.345163 0.06276,0.04707 0.407921,0.298095 0.156892,0.09414 0.235339,0.141203 0.392231,0.188271 0.298096,0.125515 0.09413,0.03138 0.407921,0.125514 0.392231,0.09414 0.392232,0.06276 0.40792,0.03138 h 0.39223 l 0.392232,-0.04707 0.392231,-0.07845 0.40792,-0.141203 0.188271,-0.07845 0.203961,-0.109825 0.392231,-0.298096 0.06276,-0.04707 0.345164,-0.376542 0.04707,-0.06276 0.251028,-0.470677 0.09414,-0.21965 0.07845,-0.219649 0.109824,-0.439299 0.07845,-0.470678 0.03138,-0.439298 v -0.439299 l -0.06276,-0.470678 -0.09414,-0.439299 -0.156893,-0.439298 -0.20396,-0.470678 -0.172582,-0.251028 -0.125513,-0.188271 -0.282407,-0.313785 -0.125515,-0.125514 -0.266716,-0.251028 -0.266717,-0.20396 -0.125515,-0.09414 -0.40792,-0.235339 -0.203961,-0.125514 -0.18827,-0.07845 -0.392232,-0.156893 -0.39223,-0.141203 -0.266718,-0.06276 -0.141202,-0.04707 -0.392232,-0.07845 -0.392231,-0.04707 -0.407921,-0.04707 -0.392231,-0.01569 z"
         style="fill:#578f40;fill-opacity:0.3019608;stroke-width:0.15689246"
         inkscape:connector-curvature="0" />
      <path
         id="path6261"
         d="m -82.990796,74.121699 -0.407921,0.04707 -0.392231,0.109825 -0.156892,0.07845 -0.235339,0.125514 -0.376542,0.313785 -0.01569,0.04707 -0.235339,0.407921 -0.125514,0.454988 -0.03138,0.439298 0.03138,0.454989 0.09414,0.454988 0.156892,0.439299 0.109825,0.251028 0.09414,0.20396 0.282407,0.454988 v 0.01569 l 0.392231,0.423609 0.01569,0.01569 0.392231,0.313784 0.188271,0.125514 0.21965,0.109825 0.392231,0.156892 0.392232,0.09414 0.40792,0.04707 0.39223,-0.03138 0.392232,-0.109825 0.392231,-0.203959 0.09414,-0.06276 0.313784,-0.313785 0.09414,-0.141203 0.235338,-0.439299 0.06276,-0.21965 0.06276,-0.235338 0.06276,-0.454988 V 77.0556 l -0.04707,-0.470678 -0.07845,-0.313784 -0.03138,-0.125515 -0.203961,-0.439298 -0.156892,-0.251028 -0.156892,-0.20396 -0.251028,-0.266718 -0.203961,-0.188271 -0.18827,-0.125513 -0.392232,-0.21965 -0.219649,-0.09414 -0.172581,-0.07845 -0.40792,-0.09414 -0.392232,-0.04707 h -0.392231 z"
         style="fill:#578f40;fill-opacity:1;stroke-width:0.15689246"
         inkscape:connector-curvature="0" />
    </g>
  </g>
</svg>
