<?xml version="1.0" encoding="UTF-8" standalone="no"?>
<svg
   xmlns:d="https://loading.io/stock/"
   xmlns:dc="http://purl.org/dc/elements/1.1/"
   xmlns:cc="http://creativecommons.org/ns#"
   xmlns:rdf="http://www.w3.org/1999/02/22-rdf-syntax-ns#"
   xmlns:svg="http://www.w3.org/2000/svg"
   xmlns="http://www.w3.org/2000/svg"
   xmlns:sodipodi="http://sodipodi.sourceforge.net/DTD/sodipodi-0.dtd"
   xmlns:inkscape="http://www.inkscape.org/namespaces/inkscape"
   id="Layer_2"
   data-name="Layer 2"
   viewBox="0 0 18.96 17.97"
   version="1.1"
   sodipodi:docname="parcoords.svg"
   inkscape:version="0.92.3 (2405546, 2018-03-11)">
  <metadata
     id="metadata36">
    <rdf:RDF>
      <cc:Work
         rdf:about="">
        <dc:format>image/svg+xml</dc:format>
        <dc:type
           rdf:resource="http://purl.org/dc/dcmitype/StillImage" />
        <dc:title></dc:title>
      </cc:Work>
    </rdf:RDF>
  </metadata>
  <sodipodi:namedview
     pagecolor="#ffffff"
     bordercolor="#666666"
     borderopacity="1"
     objecttolerance="10"
     gridtolerance="10"
     guidetolerance="10"
     inkscape:pageopacity="0"
     inkscape:pageshadow="2"
     inkscape:window-width="1920"
     inkscape:window-height="1057"
     id="namedview34"
     showgrid="false"
     inkscape:zoom="30.061976"
     inkscape:cx="-0.21682384"
     inkscape:cy="7.3218487"
     inkscape:window-x="-8"
     inkscape:window-y="-8"
     inkscape:window-maximized="1"
     inkscape:current-layer="g5363" />
  <defs
     id="defs4">
    <style
       id="style2">
      .cls-1 {
        fill: #578f40;
      }

      .cls-2 {
        fill: #b7d883;
        opacity: .8;
      }
    </style>
  </defs>
  <text
     xml:space="preserve"
     style="font-style:normal;font-weight:normal;font-size:40px;line-height:1.25;font-family:sans-serif;letter-spacing:0px;word-spacing:0px;fill:#000000;fill-opacity:1;stroke:none"
     x="-16.218685"
     y="12.106906"
     id="text73"><tspan
       sodipodi:role="line"
       id="tspan71"
       x="-16.218685"
       y="48.600117" /></text>
  <g
     transform="matrix(0.19057404,0,0,0.19057404,0.02996971,-0.56453928)"
     class="ldl-scale"
     id="g5363">
    <path
       inkscape:connector-curvature="0"
       d="m 95,59.7 c 0,-2.8 -1.8,-5.2 -4.4,-6 V 36.6 c 2.5,-0.8 4.4,-3.2 4.4,-6 0,-2.8 -1.8,-5.2 -4.4,-6 V 11.3 h -3.9 v 13.4 c -2.5,0.8 -4.4,3.2 -4.4,6 0,0.3 0,0.6 0.1,0.9 L 69.7,38 55.6,23.8 C 56,23 56.3,22 56.3,21 c 0,-2.8 -1.8,-5.2 -4.4,-6 V 11.3 H 48 V 15 c -2.4,0.8 -4.2,3 -4.3,5.6 l -27.1,6.8 c -0.8,-1.2 -2,-2.2 -3.4,-2.7 V 11.3 H 9.4 v 13.4 c -2.5,0.8 -4.4,3.2 -4.4,6 0,2.8 1.8,5.2 4.4,6 V 44 C 6.8,44.8 5,47.2 5,50 c 0,2.8 1.8,5.2 4.4,6 V 73 C 6.8,73.9 5,76.2 5,79 c 0,2.8 1.8,5.2 4.4,6 v 3.7 h 3.9 V 85 c 2.4,-0.8 4.2,-2.9 4.3,-5.5 l 27.1,-6.8 c 0.8,1.2 2,2.2 3.4,2.7 V 88.8 H 52 V 75.3 c 1.4,-0.5 2.6,-1.4 3.4,-2.7 l 27.1,6.8 c 0.2,2.6 1.9,4.8 4.3,5.5 v 3.7 h 3.9 V 85 c 2.5,-0.8 4.4,-3.2 4.4,-6 0,-2.8 -1.8,-5.2 -4.4,-6 V 65.6 C 93.2,64.8 95,62.5 95,59.7 Z m -2.9,0 c 0,1.9 -1.5,3.4 -3.4,3.4 -1.9,0 -3.4,-1.5 -3.4,-3.4 0,-1.9 1.5,-3.4 3.4,-3.4 1.9,0 3.4,1.5 3.4,3.4 z M 88.7,27.3 c 1.9,0 3.4,1.5 3.4,3.4 0,1.9 -1.5,3.4 -3.4,3.4 -1.9,0 -3.4,-1.5 -3.4,-3.4 0,-1.9 1.5,-3.4 3.4,-3.4 z M 84.2,35 c 0.7,0.7 1.6,1.3 2.5,1.6 v 17.1 c -0.3,0.1 -0.6,0.2 -0.9,0.4 L 72.6,40.9 Z m -1.1,21.8 c -0.4,0.9 -0.7,1.8 -0.7,2.9 0,2.8 1.8,5.2 4.4,6 V 73 c -1.4,0.5 -2.6,1.4 -3.4,2.7 L 56.3,68.9 C 56.1,66.3 54.4,64.1 52,63.3 V 56 c 2.5,-0.8 4.4,-3.2 4.4,-6 0,-0.3 0,-0.6 -0.1,-0.9 L 69,42.7 Z M 43.7,68.9 16.6,75.7 C 15.8,74.5 14.6,73.5 13.2,73 V 56 c 1.9,-0.6 3.4,-2.1 4,-4 H 44 c 0.6,1.9 2.1,3.4 4,4 v 7.4 c -2.3,0.7 -4.1,2.9 -4.3,5.5 z M 17.6,31.1 44.7,24.3 c 0.8,1.2 2,2.2 3.4,2.7 v 17 c -1.9,0.6 -3.4,2.1 -4,4.1 H 17.3 c -0.6,-1.9 -2.1,-3.4 -4,-4.1 v -7.4 c 2.3,-0.8 4.1,-2.9 4.3,-5.5 z M 53.4,50 c 0,1.9 -1.5,3.4 -3.4,3.4 -1.9,0 -3.4,-1.5 -3.4,-3.4 0,-1.9 1.5,-3.4 3.4,-3.4 1.9,0 3.4,1.5 3.4,3.4 z m 1.1,-4.4 C 53.8,44.9 52.9,44.3 51.9,44 V 26.9 c 0.3,-0.1 0.6,-0.2 0.9,-0.4 L 66,39.7 Z M 50,17.6 c 1.9,0 3.4,1.5 3.4,3.4 0,1.9 -1.5,3.4 -3.4,3.4 -1.9,0 -3.4,-1.5 -3.4,-3.4 0,-1.9 1.5,-3.4 3.4,-3.4 z m -42.1,13 c 0,-1.9 1.5,-3.4 3.4,-3.4 1.9,0 3.4,1.5 3.4,3.4 0,1.9 -1.5,3.4 -3.4,3.4 -1.9,0 -3.4,-1.5 -3.4,-3.4 z m 0,19.4 c 0,-1.9 1.5,-3.4 3.4,-3.4 1.9,0 3.4,1.5 3.4,3.4 0,1.9 -1.5,3.4 -3.4,3.4 -1.9,0 -3.4,-1.5 -3.4,-3.4 z m 3.4,32.4 c -1.9,0 -3.4,-1.5 -3.4,-3.4 0,-1.9 1.5,-3.4 3.4,-3.4 1.9,0 3.4,1.5 3.4,3.4 0,1.9 -1.5,3.4 -3.4,3.4 z M 50,72.7 c -1.9,0 -3.4,-1.5 -3.4,-3.4 0,-1.9 1.5,-3.3 3.4,-3.3 1.9,0 3.4,1.5 3.4,3.4 0,1.9 -1.5,3.3 -3.4,3.3 z M 92.1,79 c 0,1.9 -1.5,3.4 -3.4,3.4 -1.9,0 -3.4,-1.5 -3.4,-3.4 0,-1.9 1.5,-3.4 3.4,-3.4 1.9,0 3.4,1.6 3.4,3.4 z"
       style="fill:#333333"
       id="path5359" />
    <metadata
       id="metadata5361">
      <d:name
         style="animation-play-state:paused">parallel coordinates</d:name>
      <d:tags
         style="animation-play-state:paused">parallel coordinates,line chart,dot chart,visualization,visualize</d:tags>
      <d:license
         style="animation-play-state:paused">by</d:license>
      <d:slug
         style="animation-play-state:paused">8y8a6j</d:slug>
    </metadata>
    <path
       style="fill:#008000;fill-opacity:1;stroke:#578f40;stroke-width:0.03326461;stroke-opacity:1"
       d="m 9.2236733,15.078638 v -1.27772 l -0.1580069,-0.0757 C 8.9787626,13.683581 8.8253295,13.56511 8.7247041,13.461947 l -0.1829554,-0.187569 -2.5836448,0.650169 -2.5836447,0.650167 -0.020137,0.13428 c -0.050604,0.337453 -0.3259305,0.696987 -0.6499668,0.848757 l -0.1668698,0.07816 v 0.343592 0.343593 H 2.1882077 1.8389292 V 15.977719 15.632344 L 1.6601473,15.544874 C 1.4471348,15.440657 1.1968466,15.183832 1.0964638,14.96647 1.038122,14.840141 1.0239912,14.747954 1.0239711,14.49354 c -2.19e-5,-0.277775 0.011093,-0.338654 0.091857,-0.503112 0.1061853,-0.216223 0.353015,-0.46134 0.5714063,-0.567443 l 0.1516943,-0.0737 V 11.729852 10.110418 L 1.6601473,10.022948 C 1.4469018,9.918617 1.1965892,9.6616193 1.0967891,9.4445447 1.0389669,9.3187759 1.0245771,9.2248992 1.0242964,8.9716141 1.0239934,8.6982116 1.0359231,8.6300491 1.1127688,8.4661084 1.2236513,8.2295548 1.4447752,8.0051959 1.6679375,7.9028184 L 1.8389292,7.8243741 V 7.1254281 6.426482 L 1.6679375,6.3480377 C 1.4447752,6.2456602 1.2236513,6.0213014 1.1127688,5.7847478 1.0357505,5.6204389 1.0240585,5.5532583 1.0247908,5.2792421 1.0254944,5.0159893 1.0386805,4.9366808 1.1037692,4.8042221 1.2181971,4.5713557 1.4498713,4.3307863 1.6575502,4.2291785 L 1.8389292,4.140438 V 2.8802863 1.6201347 h 0.3492785 0.3492784 v 1.2608799 1.2608799 l 0.1746392,0.098707 C 2.8081773,4.2948905 2.9573864,4.414916 3.043702,4.5073254 L 3.2006395,4.6753423 5.7710486,4.0266431 C 7.1847737,3.6698586 8.3526138,3.360406 8.3662486,3.3389708 8.3798834,3.3175355 8.3912802,3.2625749 8.391575,3.2168361 8.3932349,2.9592526 8.7487371,2.5007532 9.0497828,2.367932 L 9.1904087,2.3058881 V 1.9630114 1.6201347 h 0.3659107 0.3659107 v 0.3435922 0.3435923 l 0.1676879,0.078541 c 0.211308,0.098971 0.443624,0.3452471 0.554844,0.5881834 0.10872,0.2374757 0.120547,0.5731775 0.0295,0.8374372 l -0.06161,0.1788368 1.351177,1.3511768 1.351177,1.3511773 1.214266,-0.6068613 1.214265,-0.6068609 V 5.2639174 c 0,-0.1360277 0.02531,-0.2826687 0.06888,-0.399124 0.0898,-0.2399972 0.346765,-0.5208391 0.581775,-0.6358187 L 16.575153,4.140438 V 2.8802863 1.6201347 h 0.349278 0.349279 l 1.33e-4,1.2557391 1.33e-4,1.2557391 0.14969,0.06156 c 0.213429,0.087771 0.451807,0.3159475 0.566448,0.542203 0.08974,0.1771081 0.0986,0.2244701 0.0986,0.5272343 0,0.2856066 -0.01153,0.3561658 -0.08152,0.4989692 -0.104043,0.2122881 -0.372322,0.4804774 -0.575461,0.5752692 l -0.158007,0.073732 v 1.628821 1.6288211 l 0.180965,0.08561 c 0.237076,0.1121553 0.490507,0.3894103 0.584964,0.6399553 0.09766,0.259055 0.0813,0.677797 -0.03606,0.922982 -0.100615,0.210187 -0.309383,0.420299 -0.527366,0.530759 l -0.169234,0.08576 v 0.708001 0.708 l 0.151694,0.0737 c 0.232205,0.112813 0.45845,0.344273 0.567348,0.580424 0.0815,0.176737 0.09565,0.249164 0.09579,0.490131 1.34e-4,0.237583 -0.01413,0.313227 -0.08927,0.473548 -0.10785,0.23012 -0.352269,0.482911 -0.567555,0.586993 l -0.158007,0.07639 v 0.329679 0.329679 H 16.94108 16.575169 V 15.94313 15.596431 l -0.116648,-0.0385 c -0.281235,-0.09282 -0.616549,-0.522387 -0.668239,-0.856083 -0.01893,-0.122196 -0.03567,-0.144747 -0.12576,-0.169361 -0.05716,-0.01562 -1.220331,-0.309477 -2.584828,-0.653024 l -2.480905,-0.62463 -0.170956,0.180761 c -0.09403,0.09942 -0.246248,0.216026 -0.338271,0.259128 l -0.1673319,0.07837 v 1.291633 1.291634 H 9.5729517 9.2236733 Z m -6.8452271,0.04547 c 0.5819751,-0.16163 0.6170373,-1.008093 0.051544,-1.244371 -0.5104432,-0.213277 -1.0336881,0.264652 -0.8749516,0.799176 0.057745,0.194449 0.2170841,0.364262 0.4044667,0.431055 0.156717,0.05586 0.2565815,0.05923 0.4189409,0.01414 z m 14.7381658,-5.35e-4 c 0.142445,-0.03956 0.33795,-0.197925 0.40543,-0.328417 0.274613,-0.531043 -0.288791,-1.145475 -0.839394,-0.915418 -0.249835,0.104388 -0.405416,0.33994 -0.405416,0.613807 0,0.445786 0.405859,0.750418 0.83938,0.630028 z M 5.7974182,13.22371 c 1.3996085,-0.351665 2.5557405,-0.655146 2.569182,-0.674403 0.013442,-0.01926 0.024668,-0.06065 0.024948,-0.09198 0.00118,-0.132007 0.1474853,-0.433656 0.2839434,-0.58543 0.080739,-0.0898 0.2295903,-0.206537 0.330779,-0.25941 l 0.1839796,-0.09613 6.65e-5,-0.704922 6.65e-5,-0.704923 L 8.9882676,9.9987854 C 8.7672898,9.8810057 8.5970581,9.7045945 8.489018,9.4814132 L 8.4193878,9.3375248 H 5.8615404 3.3036929 L 3.218835,9.5049839 C 3.1107231,9.7183325 2.9182938,9.9107619 2.7049452,10.018874 l -0.1674591,0.08486 v 1.626438 1.626438 l 0.1490707,0.07216 c 0.081989,0.03969 0.2279374,0.152692 0.32433,0.251115 0.096393,0.09842 0.1902283,0.179911 0.2085239,0.181083 0.018295,0.0012 1.1783989,-0.285595 2.5780075,-0.63726 z m 10.2947638,0.459865 c 0.09631,-0.09786 0.244384,-0.211469 0.329044,-0.252452 l 0.153927,-0.07451 v -0.706535 -0.706536 l -0.163604,-0.07663 c -0.21827,-0.102232 -0.44441,-0.338957 -0.557318,-0.583404 -0.07746,-0.167711 -0.09182,-0.242091 -0.0899,-0.465705 0.0014,-0.163295 0.02395,-0.323523 0.05834,-0.414692 l 0.05605,-0.148575 -1.348174,-1.3481738 -1.348174,-1.3481745 -1.209861,0.6046599 -1.209861,0.6046595 -0.0151,0.2609053 C 10.735117,9.243209 10.712723,9.326322 10.620829,9.4987345 10.496536,9.7319317 10.29501,9.9277242 10.070802,10.033115 l -0.1485719,0.06984 v 0.697826 0.697826 l 0.1674589,0.08486 c 0.314592,0.159415 0.554755,0.478168 0.632139,0.838994 l 0.03411,0.159078 2.518746,0.63501 c 1.38531,0.349256 2.546562,0.637251 2.580561,0.639989 0.03509,0.0028 0.137532,-0.07196 0.236932,-0.172958 z M 9.9296013,13.197894 c 0.1636917,-0.112163 0.2576877,-0.265658 0.2804677,-0.457999 0.048,-0.405255 -0.2476066,-0.73974 -0.6537496,-0.73974 -0.5585198,0 -0.8642003,0.642654 -0.5073831,1.066707 0.1999439,0.23762 0.6314192,0.301818 0.880665,0.131032 z m 7.2980727,-1.795073 c 0.311025,-0.141242 0.45865,-0.571023 0.303782,-0.884402 -0.123994,-0.250908 -0.455223,-0.413249 -0.72122,-0.353483 -0.629587,0.141458 -0.727876,0.949664 -0.151922,1.249212 0.134533,0.06997 0.40206,0.06465 0.56936,-0.01133 z M 16.575153,8.0399112 V 6.4113596 L 16.417146,6.3275491 C 16.330242,6.2814533 16.216566,6.210098 16.164533,6.168982 l -0.09461,-0.074757 -1.11247,0.5641036 -1.11247,0.564104 1.271227,1.2715495 1.271229,1.2715494 0.09386,-0.048534 0.09386,-0.048535 z M 2.3545307,9.6001895 C 2.6466367,9.520399 2.8346975,9.2725471 2.8361371,8.9654635 2.8370399,8.7729006 2.7926837,8.6507905 2.6767445,8.5266633 2.4750548,8.3107301 2.1452922,8.2486979 1.8805014,8.3768811 1.3474675,8.6349183 1.4431029,9.4663357 2.0218846,9.6060132 c 0.1456089,0.03514 0.1852221,0.034446 0.3326461,-0.00582 z M 9.9083259,9.5206402 C 10.350307,9.2616216 10.310269,8.5822598 9.8404448,8.368848 9.4266566,8.1808903 8.9559048,8.4453739 8.9025607,8.8957814 c -0.017216,0.1453574 -0.00656,0.2015124 0.066241,0.3490649 0.181211,0.3672806 0.5824388,0.4850596 0.9395242,0.2757939 z M 8.5174702,8.441944 C 8.6167854,8.2254579 8.8402108,8.0002911 9.0522145,7.9030327 L 9.2236733,7.8243741 V 6.2030902 4.581806 L 9.050701,4.4941543 C 8.9555662,4.4459459 8.8011714,4.3268252 8.7076018,4.2294418 L 8.5374745,4.052381 5.9663525,4.6971 C 4.5522352,5.0516955 3.3915596,5.3464506 3.3870734,5.3521112 3.3825871,5.3577722 3.361017,5.4355186 3.3391398,5.5248809 3.2538609,5.8732217 3.0473957,6.1423613 2.7396023,6.3064134 L 2.5374861,6.4141402 v 0.7066102 0.7066099 l 0.1502706,0.073007 c 0.2125938,0.1032859 0.4254416,0.310915 0.5363754,0.5232244 l 0.095072,0.1819534 2.5615698,6.66e-5 2.5615698,6.65e-5 0.075126,-0.1637594 z M 11.467381,7.605992 C 12.040274,7.3122881 12.533384,7.0540715 12.563181,7.0321774 12.609996,6.9977795 12.446411,6.8214913 11.35946,5.7349809 10.14308,4.519094 10.098602,4.4787175 10.011896,4.5116831 l -0.089666,0.034091 6.66e-5,1.6391056 6.65e-5,1.6391055 0.1800919,0.094098 c 0.09905,0.051754 0.206119,0.1228569 0.237929,0.1580069 0.03181,0.03515 0.06403,0.063909 0.07159,0.063909 0.0076,0 0.482487,-0.2403033 1.055379,-0.5340068 z M 2.5125006,5.8395858 c 0.068588,-0.034479 0.1658868,-0.1249186 0.2162199,-0.2009771 0.078405,-0.1184783 0.091515,-0.172341 0.091515,-0.3760069 0,-0.1966538 -0.013848,-0.2579282 -0.080162,-0.3547074 C 2.5978411,4.7003198 2.4590615,4.6305821 2.1882157,4.6305821 c -0.2035529,0 -0.2575554,0.013127 -0.3757366,0.091336 -0.3434633,0.2272933 -0.3865697,0.7115536 -0.089759,1.0083637 0.2169056,0.2169056 0.4982697,0.2558458 0.7897805,0.109304 z m 14.7908084,-0.0051 c 0.34596,-0.228946 0.389493,-0.7104004 0.0912,-1.0086894 -0.324813,-0.324813 -0.852177,-0.2425182 -1.048807,0.1636658 -0.118465,0.2447151 -0.07466,0.5542743 0.106292,0.751106 0.202942,0.220754 0.594391,0.2639391 0.851311,0.093918 z M 9.7020723,4.081716 c 0.2251522,0 0.5195397,-0.3624326 0.5195397,-0.6396274 0,-0.3651802 -0.2958927,-0.6576925 -0.6652926,-0.6576925 -0.6080109,0 -0.8830065,0.7200279 -0.436945,1.1440655 0.09998,0.095044 0.3786611,0.1956079 0.4646142,0.1676595 0.024366,-0.00792 0.077503,-0.014405 0.1180837,-0.014405 z"
       id="path5408"
       inkscape:connector-curvature="0"
       transform="matrix(5.2473044,0,0,5.2473044,-0.15726019,2.9623095)" />
    <path
       style="fill:#8cc761;fill-opacity:1;stroke:#578f40;stroke-width:0.03326461;stroke-opacity:1"
       d="M 1.8888262,5.8176723 C 1.6600666,5.6712505 1.5727386,5.510307 1.5729367,5.2354958 1.573082,5.0339292 1.6443868,4.897084 1.8184474,4.7643215 1.9201755,4.6867297 1.9689768,4.6739326 2.1678912,4.6726874 2.3365166,4.6716318 2.428136,4.6882463 2.5063937,4.7340726 2.877628,4.9514603 2.8893742,5.5231067 2.5281066,5.7907577 2.393975,5.8901312 2.0262207,5.9056142 1.8888262,5.8176723 Z"
       id="path5412"
       inkscape:connector-curvature="0"
       transform="matrix(5.2473044,0,0,5.2473044,-0.15726019,2.9623095)" />
    <path
       style="fill:#8cc761;fill-opacity:1;stroke:#578f40;stroke-width:0.03326461;stroke-opacity:1"
       d="M 9.3848337,4.0317881 C 9.1829089,3.9583848 9.0978931,3.8847921 9.0090405,3.7064882 8.9028033,3.4932978 8.9023262,3.3734511 9.0068855,3.1651543 9.1274251,2.9250226 9.2780921,2.834293 9.5563194,2.834293 c 0.1790872,0 0.243322,0.015231 0.3380831,0.080162 0.2189565,0.1500311 0.3242595,0.379845 0.2806245,0.6124368 -0.02791,0.1487608 -0.1912373,0.3914989 -0.3087548,0.4588665 -0.1355263,0.077691 -0.3404455,0.097283 -0.4814385,0.04603 z"
       id="path5414"
       inkscape:connector-curvature="0"
       transform="matrix(5.2473044,0,0,5.2473044,-0.15726019,2.9623095)" />
    <path
       style="fill:#8cc761;fill-opacity:1;stroke:#578f40;stroke-width:0.03326461;stroke-opacity:1"
       d="m 16.691579,11.386868 c -0.225266,-0.0987 -0.381885,-0.345941 -0.382358,-0.6036 -4.39e-4,-0.239225 0.221738,-0.504715 0.482665,-0.57676 0.245776,-0.06786 0.586994,0.08663 0.700729,0.317258 0.0757,0.153499 0.07784,0.421464 0.0045,0.561978 -0.150266,0.287876 -0.520168,0.426152 -0.80553,0.301124 z"
       id="path5416"
       inkscape:connector-curvature="0"
       transform="matrix(5.2473044,0,0,5.2473044,-0.15726019,2.9623095)" />
    <path
       style="fill:#83a179;fill-opacity:1;stroke:#578f40;stroke-width:0.03326461;stroke-opacity:1"
       d="m 16.71674,5.8741091 c -0.225461,-0.065113 -0.408271,-0.3399199 -0.406788,-0.6114993 0.0014,-0.2478909 0.216353,-0.5152342 0.469084,-0.5832876 0.308718,-0.083129 0.668953,0.1341337 0.75879,0.457636 0.04297,0.1547417 0.04299,0.1630426 5.37e-4,0.3158901 -0.0942,0.3391724 -0.458716,0.5260675 -0.821623,0.4212608 z"
       id="path5418"
       inkscape:connector-curvature="0"
       transform="matrix(5.2473044,0,0,5.2473044,-0.15726019,2.9623095)" />
    <path
       style="fill:#83a179;fill-opacity:1;stroke:#578f40;stroke-width:0.03326461;stroke-opacity:1"
       d="M 9.3871214,9.5718499 C 9.2315658,9.5247088 9.1204862,9.4290102 9.0219814,9.2572705 8.9685955,9.1641938 8.9248591,9.0506176 8.9247894,9.0048787 8.9245354,8.8380588 9.000921,8.6543056 9.1200381,8.5351885 9.4373118,8.2179148 9.9397152,8.3111069 10.126309,8.7218442 10.285193,9.0715857 10.091162,9.4617185 9.7060102,9.566925 9.5553814,9.6080702 9.5090036,9.6087864 9.3871214,9.5718499 Z"
       id="path5420"
       inkscape:connector-curvature="0"
       transform="matrix(5.2473044,0,0,5.2473044,-0.15726019,2.9623095)" />
    <path
       style="fill:#83a179;fill-opacity:1;stroke:#578f40;stroke-width:0.03326461;stroke-opacity:1"
       d="M 1.9033758,9.5116968 C 1.660219,9.3846702 1.5626509,9.2042114 1.5800904,8.9137593 1.5938856,8.6840039 1.6557474,8.5721441 1.8373891,8.4485064 2.0473295,8.3056067 2.3524619,8.3172095 2.5763113,8.4766044 2.9636861,8.7524396 2.8187524,9.4373898 2.3451815,9.5689133 2.1594422,9.6204981 2.095891,9.6122679 1.9033758,9.5116968 Z"
       id="path5422"
       inkscape:connector-curvature="0"
       transform="matrix(5.2473044,0,0,5.2473044,-0.15726019,2.9623095)" />
    <path
       style="fill:#aad400;fill-opacity:1;stroke:#578f40;stroke-width:0.03326461;stroke-opacity:1"
       d="M 1.9201202,15.043482 C 1.8123046,14.989755 1.7230383,14.912183 1.6617347,14.818946 1.578375,14.692163 1.5693393,14.65231 1.5795839,14.456604 c 0.00943,-0.180227 0.028666,-0.242382 0.1066179,-0.344583 0.1695614,-0.222306 0.4968518,-0.311324 0.7328666,-0.199327 0.5282467,0.250669 0.5003399,0.985952 -0.044553,1.173876 -0.1678874,0.0579 -0.2714404,0.04808 -0.4543951,-0.04309 z"
       id="path5424"
       inkscape:connector-curvature="0"
       transform="matrix(5.2473044,0,0,5.2473044,-0.15726019,2.9623095)" />
    <path
       style="fill:#aad400;fill-opacity:1;stroke:#578f40;stroke-width:0.03326461;stroke-opacity:1"
       d="m 9.2717854,13.180155 c -0.2898199,-0.145481 -0.4107936,-0.440617 -0.299768,-0.731333 0.155232,-0.406469 0.6722039,-0.544432 0.984124,-0.262631 0.3355666,0.303164 0.2855266,0.807233 -0.099441,1.001713 -0.193696,0.09785 -0.3794457,0.09539 -0.5849148,-0.0077 z"
       id="path5426"
       inkscape:connector-curvature="0"
       transform="matrix(5.2473044,0,0,5.2473044,-0.15726019,2.9623095)" />
    <path
       style="fill:#aad400;fill-opacity:1;stroke:#578f40;stroke-width:0.03326461;stroke-opacity:1"
       d="m 16.691294,15.06353 c -0.404345,-0.18369 -0.507225,-0.665933 -0.210696,-0.987628 0.07324,-0.07945 0.186127,-0.161944 0.250861,-0.183309 0.454294,-0.14993 0.940098,0.314474 0.804034,0.768616 -0.04962,0.165624 -0.192926,0.318285 -0.377471,0.402118 -0.169168,0.07685 -0.297892,0.0769 -0.466728,2.03e-4 z"
       id="path5428"
       inkscape:connector-curvature="0"
       transform="matrix(5.2473044,0,0,5.2473044,-0.15726019,2.9623095)" />
  </g>
</svg>
