<?xml version="1.0" encoding="UTF-8" standalone="no"?>
<svg
   xmlns:d="https://loading.io/stock/"
   xmlns:dc="http://purl.org/dc/elements/1.1/"
   xmlns:cc="http://creativecommons.org/ns#"
   xmlns:rdf="http://www.w3.org/1999/02/22-rdf-syntax-ns#"
   xmlns:svg="http://www.w3.org/2000/svg"
   xmlns="http://www.w3.org/2000/svg"
   xmlns:sodipodi="http://sodipodi.sourceforge.net/DTD/sodipodi-0.dtd"
   xmlns:inkscape="http://www.inkscape.org/namespaces/inkscape"
   id="Layer_2"
   data-name="Layer 2"
   viewBox="0 0 18.96 17.97"
   version="1.1"
   sodipodi:docname="pointcloud.svg"
   inkscape:version="0.92.3 (2405546, 2018-03-11)">
  <metadata
     id="metadata36">
    <rdf:RDF>
      <cc:Work
         rdf:about="">
        <dc:format>image/svg+xml</dc:format>
        <dc:type
           rdf:resource="http://purl.org/dc/dcmitype/StillImage" />
        <dc:title></dc:title>
      </cc:Work>
    </rdf:RDF>
  </metadata>
  <sodipodi:namedview
     pagecolor="#ffffff"
     bordercolor="#666666"
     borderopacity="1"
     objecttolerance="10"
     gridtolerance="10"
     guidetolerance="10"
     inkscape:pageopacity="0"
     inkscape:pageshadow="2"
     inkscape:window-width="1920"
     inkscape:window-height="1057"
     id="namedview34"
     showgrid="false"
     inkscape:zoom="30.061976"
     inkscape:cx="-0.21682384"
     inkscape:cy="7.3218487"
     inkscape:window-x="-8"
     inkscape:window-y="-8"
     inkscape:window-maximized="1"
     inkscape:current-layer="g5363" />
  <defs
     id="defs4">
    <style
       id="style2">
      .cls-1 {
        fill: #578f40;
      }

      .cls-2 {
        fill: #b7d883;
        opacity: .8;
      }
    </style>
  </defs>
  <text
     xml:space="preserve"
     style="font-style:normal;font-weight:normal;font-size:40px;line-height:1.25;font-family:sans-serif;letter-spacing:0px;word-spacing:0px;fill:#000000;fill-opacity:1;stroke:none"
     x="-16.218685"
     y="12.106906"
     id="text73"><tspan
       sodipodi:role="line"
       id="tspan71"
       x="-16.218685"
       y="48.600117" /></text>
  <g
     transform="matrix(0.19057404,0,0,0.19057404,0.02996971,-0.56453928)"
     class="ldl-scale"
     id="g5363">
    <metadata
       id="metadata5361">
      <d:name
         style="animation-play-state:paused">parallel coordinates</d:name>
      <d:tags
         style="animation-play-state:paused">parallel coordinates,line chart,dot chart,visualization,visualize</d:tags>
      <d:license
         style="animation-play-state:paused">by</d:license>
      <d:slug
         style="animation-play-state:paused">8y8a6j</d:slug>
    </metadata>
    <path
       style="fill:#8cc761;fill-opacity:1;stroke:#578f40;stroke-width:0.31432608;stroke-opacity:1"
       d="m 29.663094,37.82821 c -2.161609,-1.383578 -2.986795,-2.904376 -2.984923,-5.50114 0.0014,-1.904656 0.675151,-3.197742 2.319895,-4.45225 0.961256,-0.733186 1.422392,-0.854108 3.301987,-0.865876 1.593386,-0.01 2.459122,0.14702 3.1986,0.580046 3.50789,2.054154 3.618884,7.455792 0.20517,9.984896 -1.267444,0.939006 -4.742452,1.08531 -6.040729,0.254324 z"
       id="path5412"
       inkscape:connector-curvature="0" />
    <path
       style="fill:#8cc761;fill-opacity:1;stroke:#578f40;stroke-width:0.31432608;stroke-opacity:1"
       d="m 50.573676,28.982197 c -1.908042,-0.693606 -2.711378,-1.389004 -3.55097,-3.073844 -1.003864,-2.014492 -1.008372,-3.146956 -0.02036,-5.115206 1.13901,-2.269068 2.562702,-3.126396 5.191744,-3.126396 1.692244,0 2.299214,0.14392 3.194638,0.757472 2.068978,1.417682 3.064012,3.589254 2.651694,5.787076 -0.263728,1.40568 -1.807052,3.699376 -2.917506,4.33595 -1.280624,0.734124 -3.216958,0.919254 -4.54924,0.434948 z"
       id="path5414"
       inkscape:connector-curvature="0" />
    <path
       style="fill:#8cc761;fill-opacity:1;stroke:#578f40;stroke-width:0.31432608;stroke-opacity:1"
       d="m 83.485277,56.590395 c -2.12859,-0.932642 -3.60853,-3.268888 -3.613,-5.703576 -0.004,-2.2605 2.09526,-4.769184 4.56083,-5.449956 2.3224,-0.641228 5.54666,0.81859 6.62138,2.997854 0.7153,1.450452 0.73553,3.982524 0.0425,5.310278 -1.41991,2.720216 -4.91521,4.026822 -7.61167,2.8454 z"
       id="path5416"
       inkscape:connector-curvature="0" />
    <path
       style="fill:#83a179;fill-opacity:1;stroke:#578f40;stroke-width:0.31432608;stroke-opacity:1"
       d="m 74.471911,43.597982 c -2.13044,-0.61527 -3.85786,-3.211994 -3.84385,-5.778218 0.0132,-2.342388 2.04438,-4.868584 4.4325,-5.51164 2.91716,-0.785505 6.32111,1.267466 7.17001,4.324324 0.40603,1.462196 0.40622,1.540632 0.005,2.98493 -0.89012,3.204928 -4.33453,4.97095 -7.76374,3.980604 z"
       id="path5418"
       inkscape:connector-curvature="0" />
    <path
       style="fill:#83a179;fill-opacity:1;stroke:#578f40;stroke-width:0.31432608;stroke-opacity:1"
       d="m 43.43876,48.341838 c -1.469886,-0.44545 -2.519506,-1.34973 -3.450304,-2.972544 -0.504458,-0.879506 -0.917734,-1.952718 -0.918392,-2.384916 -0.0024,-1.576326 0.719386,-3.312658 1.844956,-4.438228 2.998002,-2.998002 7.745344,-2.117406 9.508518,1.76376 1.501338,3.3048 -0.332112,6.991266 -3.971514,7.98539 -1.42333,0.388792 -1.861566,0.39556 -3.013264,0.04654 z"
       id="path5420"
       inkscape:connector-curvature="0" />
    <path
       style="fill:#83a179;fill-opacity:1;stroke:#578f40;stroke-width:0.31432608;stroke-opacity:1"
       d="m 16.185712,50.04258 c -2.297652,-1.200308 -3.219599,-2.905512 -3.054809,-5.65007 0.130354,-2.17102 0.714903,-3.228012 2.431284,-4.396298 1.983781,-1.350296 4.867059,-1.240658 6.982271,0.265506 3.660406,2.60644 2.29089,9.078714 -2.184008,10.321514 -1.755098,0.48744 -2.35561,0.40967 -4.174738,-0.540652 z"
       id="path5422"
       inkscape:connector-curvature="0" />
    <path
       style="fill:#aad400;fill-opacity:1;stroke:#578f40;stroke-width:0.31432608;stroke-opacity:1"
       d="m 52.301142,50.996308 c -1.018778,-0.50768 -1.862279,-1.24068 -2.441553,-2.1217 -0.787688,-1.198 -0.873069,-1.57458 -0.776265,-3.42386 0.08911,-1.70301 0.270873,-2.29033 1.007461,-3.256059 1.60223,-2.100628 4.694884,-2.941782 6.92505,-1.883494 4.991542,2.368638 4.727844,9.316523 -0.420994,11.092263 -1.586412,0.54711 -2.564912,0.45432 -4.293698,-0.40717 z"
       id="path5424"
       inkscape:connector-curvature="0" />
    <path
       style="fill:#aad400;fill-opacity:1;stroke:#578f40;stroke-width:0.31432608;stroke-opacity:1"
       d="m 58.033191,63.304022 c -2.738586,-1.374688 -3.881698,-4.163506 -2.832588,-6.910558 1.466828,-3.840834 6.351832,-5.144482 9.299246,-2.48167 3.170858,2.864676 2.698018,7.627756 -0.939642,9.46545 -1.830286,0.924612 -3.585484,0.901364 -5.527016,-0.07276 z"
       id="path5426"
       inkscape:connector-curvature="0" />
    <path
       style="fill:#aad400;fill-opacity:1;stroke:#578f40;stroke-width:0.31432608;stroke-opacity:1"
       d="m 77.547902,85.22291 c -3.82076,-1.73573 -4.7929,-6.29258 -1.99092,-9.332357 0.69206,-0.750744 1.75876,-1.530252 2.37045,-1.732136 4.29275,-1.416728 8.88324,2.971553 7.59753,7.262853 -0.46887,1.56503 -1.82301,3.00756 -3.56682,3.79972 -1.59852,0.72618 -2.81486,0.72665 -4.41024,0.002 z"
       id="path5428"
       inkscape:connector-curvature="0" />
    <path
       style="fill:#8cc761;fill-opacity:1;stroke:#578f40;stroke-width:0.31432608;stroke-opacity:1"
       d="m 37.653047,63.336687 c -2.161612,-1.383578 -2.986796,-2.904378 -2.984926,-5.50114 0.0014,-1.904656 0.675152,-3.197744 2.319898,-4.45225 0.961254,-0.733188 1.42239,-0.85411 3.301986,-0.865874 1.593386,-0.01 2.45912,0.14702 3.198598,0.580044 3.507892,2.054152 3.618884,7.45579 0.205172,9.984896 -1.267446,0.939012 -4.742454,1.085308 -6.040728,0.254324 z"
       id="path5412-0"
       inkscape:connector-curvature="0" />
    <path
       style="fill:#8cc761;fill-opacity:1;stroke:#578f40;stroke-width:0.31432608;stroke-opacity:1"
       d="m 15.246583,32.72852 c -1.908036,-0.693606 -2.711374,-1.389004 -3.550966,-3.073844 -1.003864,-2.014492 -1.00837,-3.146956 -0.02036,-5.115206 1.13901,-2.269068 2.562708,-3.126396 5.191746,-3.126396 1.69225,0 2.299222,0.14392 3.194644,0.75747 2.068976,1.417684 3.064,3.589258 2.651692,5.787078 -0.263726,1.40568 -1.807052,3.699376 -2.917504,4.335952 -1.280628,0.734122 -3.216958,0.91925 -4.54925,0.434946 z"
       id="path5414-0"
       inkscape:connector-curvature="0" />
    <path
       style="fill:#83a179;fill-opacity:1;stroke:#578f40;stroke-width:0.31432608;stroke-opacity:1"
       d="m 65.987945,27.235648 c -2.130436,-0.61527 -3.857856,-3.211994 -3.843846,-5.778218 0.0126,-2.342386 2.044378,-4.868584 4.432488,-5.511638 2.917162,-0.785508 6.321112,1.267464 7.17002,4.324322 0.406024,1.462196 0.406222,1.540634 0.0054,2.98493 -0.890126,3.20493 -4.334542,4.97095 -7.763738,3.980604 z"
       id="path5418-2"
       inkscape:connector-curvature="0" />
    <path
       style="fill:#8cc761;fill-opacity:1;stroke:#578f40;stroke-width:0.31432608;stroke-opacity:1"
       d="m 13.672219,71.717278 c -1.908042,-0.69361 -2.711378,-1.389 -3.55097,-3.073843 -1.0038644,-2.014494 -1.0083724,-3.146956 -0.02036,-5.115208 1.13901,-2.269068 2.562704,-3.126396 5.191746,-3.126396 1.692242,0 2.299214,0.14392 3.194636,0.757472 2.06898,1.417682 3.064016,3.589256 2.651696,5.787078 -0.26373,1.40568 -1.807052,3.699377 -2.917506,4.335947 -1.280624,0.73413 -3.216958,0.91926 -4.549238,0.43495 z"
       id="path5414-1"
       inkscape:connector-curvature="0" />
    <path
       style="fill:#83a179;fill-opacity:1;stroke:#578f40;stroke-width:0.31432608;stroke-opacity:1"
       d="m 57.119994,81.445678 c -2.130436,-0.61527 -3.857852,-3.21199 -3.843842,-5.77822 0.0126,-2.34239 2.044372,-4.86858 4.4325,-5.51164 2.917164,-0.78551 6.321114,1.26747 7.170004,4.32432 0.40604,1.4622 0.40622,1.54064 0.0054,2.98493 -0.89011,3.20493 -4.334524,4.97095 -7.763722,3.98061 z"
       id="path5418-8"
       inkscape:connector-curvature="0" />
    <path
       style="fill:#aad400;fill-opacity:1;stroke:#578f40;stroke-width:0.31432608;stroke-opacity:1"
       d="m 37.004134,82.480298 c -1.018778,-0.50768 -1.862278,-1.24068 -2.441552,-2.1217 -0.787688,-1.198 -0.873068,-1.57459 -0.776266,-3.42386 0.0891,-1.70302 0.270874,-2.29034 1.007462,-3.25606 1.60223,-2.10063 4.694884,-2.94178 6.92505,-1.88349 4.991542,2.36863 4.727844,9.31652 -0.420994,11.09226 -1.586412,0.54711 -2.564912,0.45432 -4.2937,-0.40717 z"
       id="path5424-8"
       inkscape:connector-curvature="0" />
    <path
       style="fill:#aad400;fill-opacity:1;stroke:#578f40;stroke-width:0.31432608;stroke-opacity:1"
       d="m 18.313075,87.818649 c -3.82076,-1.735729 -4.7929,-6.29258 -1.99092,-9.332357 0.69206,-0.750743 1.75876,-1.530252 2.37045,-1.732136 4.29275,-1.416728 8.883241,2.971553 7.597531,7.262853 -0.46887,1.56503 -1.823011,3.007561 -3.56682,3.79972 -1.59852,0.726181 -2.814861,0.726651 -4.410241,0.002 z"
       id="path5428-9"
       inkscape:connector-curvature="0" />
    <path
       style="fill:#aad400;fill-opacity:1;stroke:#578f40;stroke-width:0.31432608;stroke-opacity:1"
       d="m 55.317579,36.85018 c -3.82076,-1.735729 -4.7929,-6.292579 -1.99092,-9.332356 0.69206,-0.750744 1.75876,-1.530252 2.37045,-1.732136 4.29275,-1.416728 8.88324,2.971553 7.59753,7.262852 -0.46887,1.56503 -1.82301,3.007561 -3.56682,3.79972 -1.59852,0.726181 -2.81486,0.726651 -4.41024,0.002 z"
       id="path5428-1"
       inkscape:connector-curvature="0" />
    <path
       style="fill:#83a179;fill-opacity:1;stroke:#578f40;stroke-width:0.31432608;stroke-opacity:1"
       d="m 80.122843,70.208163 c -2.130436,-0.61527 -3.857856,-3.211994 -3.843846,-5.778218 0.0126,-2.342386 2.044378,-4.868584 4.432488,-5.511638 2.917163,-0.785508 6.321113,1.267464 7.170021,4.324322 0.406024,1.462196 0.406222,1.540634 0.0054,2.98493 -0.890126,3.20493 -4.334543,4.97095 -7.763739,3.980604 z"
       id="path5418-2-9"
       inkscape:connector-curvature="0" />
  </g>
</svg>
