<?xml version="1.0" encoding="UTF-8" standalone="no"?>
<svg
   xmlns:dc="http://purl.org/dc/elements/1.1/"
   xmlns:cc="http://creativecommons.org/ns#"
   xmlns:rdf="http://www.w3.org/1999/02/22-rdf-syntax-ns#"
   xmlns:svg="http://www.w3.org/2000/svg"
   xmlns="http://www.w3.org/2000/svg"
   xmlns:sodipodi="http://sodipodi.sourceforge.net/DTD/sodipodi-0.dtd"
   xmlns:inkscape="http://www.inkscape.org/namespaces/inkscape"
   id="Layer_2"
   data-name="Layer 2"
   viewBox="0 0 21.17 21.17"
   version="1.1"
   sodipodi:docname="sunburst.svg"
   inkscape:version="0.92.3 (2405546, 2018-03-11)">
  <metadata
     id="metadata18">
    <rdf:RDF>
      <cc:Work
         rdf:about="">
        <dc:format>image/svg+xml</dc:format>
        <dc:type
           rdf:resource="http://purl.org/dc/dcmitype/StillImage" />
        <dc:title></dc:title>
      </cc:Work>
    </rdf:RDF>
  </metadata>
  <sodipodi:namedview
     pagecolor="#ffffff"
     bordercolor="#666666"
     borderopacity="1"
     objecttolerance="10"
     gridtolerance="10"
     guidetolerance="10"
     inkscape:pageopacity="0"
     inkscape:pageshadow="2"
     inkscape:window-width="1920"
     inkscape:window-height="1057"
     id="namedview16"
     showgrid="false"
     inkscape:zoom="11.147851"
     inkscape:cx="10.585"
     inkscape:cy="30.768263"
     inkscape:window-x="-8"
     inkscape:window-y="-8"
     inkscape:window-maximized="1"
     inkscape:current-layer="Layer_2" />
  <defs
     id="defs4">
    <style
       id="style2">
      .cls-1 {
        fill: #83a179;
      }

      .cls-2 {
        fill: #8cc761;
      }

      .cls-3 {
        fill: #578f40;
      }
    </style>
  </defs>
  <path
     inkscape:connector-curvature="0"
     class="st0"
     d="M 0.49201855,9.6097315 2.8394392,10.014436 c -0.5635684,3.286308 0.9492553,6.567106 3.8014241,8.291662 l -1.2190267,2.05255 C 1.7405293,18.148861 -0.21608655,13.879801 0.49201855,9.6097315 Z"
     id="path97"
     style="fill:#88aa00;stroke-width:0.29812956" />
  <path
     inkscape:connector-curvature="0"
     class="st0"
     d="m 20.569199,7.8338526 c 1.5041,4.1244044 0.253764,8.7553524 -3.12084,11.5570274 l -1.534015,-1.818382 c 1.465453,-1.234624 2.443842,-2.940939 2.767251,-4.826816 0.236123,-1.376896 0.113667,-2.7944079 -0.371138,-4.0896181 z"
     id="path99"
     style="fill:#668000;stroke-width:0.29812956" />
  <path
     inkscape:connector-curvature="0"
     class="st1"
     d="m 12.510671,1.0951957 c 3.700121,0.6379149 6.76717,3.223423 8.054492,6.7621933 L 18.327558,8.6620417 C 16.859904,4.589357 12.46574,2.4141818 8.369583,3.6980877 L 7.6655968,1.4260784 C 9.2319561,0.9418862 10.893885,0.81645558 12.510671,1.0951957 Z"
     id="path101"
     style="fill:#88aa00;stroke-width:0.29812956" />
  <path
     inkscape:connector-curvature="0"
     class="st0"
     d="M 5.2543481,10.430775 C 5.6085336,8.365431 7.0856168,6.6754242 9.0859441,6.0388691 L 8.3490431,3.6945465 C 5.4819762,4.5936247 3.3289866,7.0364467 2.8183949,10.013837 v 0 z"
     id="path103"
     style="fill:#88aa00;stroke-width:0.29812956" />
  <path
     inkscape:connector-curvature="0"
     class="st2"
     d="m 5.2503119,10.454311 -2.414909,-0.416339 c -0.5635683,3.286309 0.9492553,6.567108 3.801424,8.291664 l 1.251171,-2.116677 C 5.9289244,15.005864 4.8852923,12.723764 5.2503119,10.454311 Z"
     id="path105"
     style="fill:#677821;stroke-width:0.29812956" />
  <path
     inkscape:connector-curvature="0"
     class="st0"
     d="M 12.107041,3.4488633 C 10.845302,3.2313347 9.5711621,3.3327505 8.3425772,3.7146345 L 9.0794781,6.0589581 C 9.9227441,5.792387 10.822663,5.7415597 11.685341,5.8902886 c 1.971833,0.3399515 3.626047,1.7216665 4.305988,3.6230129 L 18.301056,8.675647 C 17.337141,5.9286974 14.965025,3.9415904 12.107041,3.4488633 Z"
     id="path107"
     style="fill:#668000;stroke-width:0.29812956" />
  <path
     inkscape:connector-curvature="0"
     class="st2"
     d="m 16.263752,12.328837 c -0.22452,1.309228 -0.908526,2.496832 -1.918767,3.349516 l 1.569359,1.894145 c 2.605771,-2.158784 3.561962,-5.74392 2.416653,-8.9128929 L 16.02127,9.4972596 c 0.322345,0.9037144 0.429425,1.8823894 0.242482,2.8315774 z"
     id="path109"
     style="fill:#88aa00;stroke-width:0.29812956" />
  <path
     inkscape:connector-curvature="0"
     class="st0"
     d="M 9.8222561,16.91295 C 9.1591101,16.798621 8.5157336,16.551392 7.938478,16.200458 l -1.2786814,2.136166 c 2.9361605,1.763269 6.6572074,1.468809 9.2705474,-0.734106 l -1.56936,-1.894144 c -1.271086,1.034895 -2.921943,1.483316 -4.5387279,1.204576 z"
     id="path111"
     style="fill:#88aa00;stroke-width:0.29812956" />
  <path
     inkscape:connector-curvature="0"
     class="st3"
     d="M 7.5977327,10.859015 5.2503119,10.454311 c -0.3925301,2.288943 0.6745762,4.57509 2.6611602,5.762695 l 1.215495,-2.031955 C 7.9929958,13.486723 7.3732135,12.168244 7.5977327,10.859015 Z"
     id="path113"
     style="fill:#88aa00;stroke-width:0.29812956" />
  <path
     inkscape:connector-curvature="0"
     class="st1"
     d="M 10.222355,14.579876 C 9.8467671,14.515126 9.4593101,14.378656 9.1304991,14.164456 L 7.938478,16.200458 c 2.0265621,1.21873 4.612987,1.022476 6.429476,-0.515115 l -1.513473,-1.814842 c -0.743661,0.601796 -1.70196,0.869739 -2.632126,0.709375 z"
     id="path115"
     style="fill:#aad400;stroke-width:0.29812956" />
  <path
     inkscape:connector-curvature="0"
     class="st1"
     d="m 5.2543481,10.430775 v 0 l 2.3474208,0.404704 v 0 C 7.8076202,9.6351086 8.6574451,8.6608659 9.8139091,8.3119827 L 9.1099221,6.0399746 C 7.1061568,6.6789653 5.6085336,8.365431 5.2543481,10.430775 Z"
     id="path117"
     style="fill:#668000;stroke-width:0.29812956" />
  <path
     inkscape:connector-curvature="0"
     class="st3"
     d="m 13.936871,11.927675 c -0.129666,0.756116 -0.522316,1.442659 -1.108295,1.935332 l 1.513475,1.814841 c 1.805988,-1.493966 2.483939,-3.985113 1.680321,-6.2046306 L 13.784767,10.27787 c 0.20674,0.538468 0.246957,1.096692 0.152104,1.649805 z"
     id="path119"
     style="fill:#668000;stroke-width:0.29812956" />
  <path
     inkscape:connector-curvature="0"
     class="st3"
     d="m 11.311651,8.2279152 c 1.129696,0.1947639 2.085447,0.9986717 2.472014,2.0739968 L 16.02127,9.4972596 C 15.344263,7.5964201 13.687114,6.2141979 11.715281,5.8742466 10.852603,5.7255177 9.9526831,5.7763449 9.1094181,6.0429161 l 0.703986,2.2720092 C 10.294824,8.1677151 10.801087,8.139892 11.311651,8.2279152 Z"
     id="path121"
     style="fill:#88aa00;stroke-width:0.29812956" />
  <g
     transform="matrix(0.26955293,0,0,0.26955293,-2.2977056,-2.5124777)"
     id="Layer_32" />
</svg>
