<svg xmlns="http://www.w3.org/2000/svg" viewBox="0 0 20.85 19.41"><defs><style>.cls-1{fill:#8dc862;}.cls-2{fill:#578f40;}.cls-3{fill:#83a178;}</style></defs><g id="Camada_2" data-name="Camada 2"><g id="Layer_1" data-name="Layer 1"><path id="path97" class="cls-1" d="M.14,8.66l2.35.41a8.1,8.1,0,0,0,3.8,8.29L5.07,19.41A10.54,10.54,0,0,1,.14,8.66Z"/><path id="path99" class="cls-2" d="M20.22,6.88A10.41,10.41,0,0,1,17.1,18.44l-1.53-1.82a8.08,8.08,0,0,0,2.76-4.82A7.78,7.78,0,0,0,18,7.71Z"/><path id="path101" class="cls-1" d="M12.16.15a10.47,10.47,0,0,1,8.06,6.76L18,7.71a8,8,0,0,0-10-5L7.32.48A10.31,10.31,0,0,1,12.16.15Z"/><path id="path103" class="cls-1" d="M4.91,9.48A5.61,5.61,0,0,1,8.74,5.09L8,2.75A8,8,0,0,0,2.47,9.06h0Z"/><path id="path105" class="cls-2" d="M4.9,9.51,2.49,9.09a8.07,8.07,0,0,0,3.8,8.29l1.25-2.12A5.71,5.71,0,0,1,4.9,9.51Z"/><path id="path107" class="cls-2" d="M11.76,2.5A7.91,7.91,0,0,0,8,2.77l.74,2.34a5.49,5.49,0,0,1,2.61-.17,5.58,5.58,0,0,1,4.3,3.62L18,7.73A8,8,0,0,0,11.76,2.5Z"/><path id="path109" class="cls-1" d="M15.92,11.38A5.66,5.66,0,0,1,14,14.73l1.57,1.89A8,8,0,0,0,18,7.71l-2.31.84A5.35,5.35,0,0,1,15.92,11.38Z"/><path id="path111" class="cls-1" d="M9.47,16a5.37,5.37,0,0,1-1.88-.71L6.31,17.39a8,8,0,0,0,9.27-.74L14,14.76A5.68,5.68,0,0,1,9.47,16Z"/><path id="path113" class="cls-1" d="M7.25,9.91,4.9,9.51a5.63,5.63,0,0,0,2.66,5.76l1.22-2A3.27,3.27,0,0,1,7.25,9.91Z"/><path id="path115" class="cls-3" d="M9.87,13.63a3,3,0,0,1-1.09-.41l-1.19,2A5.55,5.55,0,0,0,14,14.74l-1.51-1.82A3.34,3.34,0,0,1,9.87,13.63Z"/><path id="path117" class="cls-2" d="M4.91,9.48h0l2.34.41h0A3.2,3.2,0,0,1,9.47,7.36L8.76,5.09A5.63,5.63,0,0,0,4.91,9.48Z"/><path id="path119" class="cls-2" d="M13.59,11a3.23,3.23,0,0,1-1.11,1.93L14,14.73a5.59,5.59,0,0,0,1.68-6.21l-2.23.81A3.21,3.21,0,0,1,13.59,11Z"/><path id="path121" class="cls-1" d="M11,7.28a3.24,3.24,0,0,1,2.48,2.07l2.23-.8A5.6,5.6,0,0,0,8.76,5.09l.7,2.28A3.17,3.17,0,0,1,11,7.28Z"/></g></g></svg>