<?xml version="1.0" encoding="UTF-8" standalone="no"?>
<svg
   xmlns:dc="http://purl.org/dc/elements/1.1/"
   xmlns:cc="http://creativecommons.org/ns#"
   xmlns:rdf="http://www.w3.org/1999/02/22-rdf-syntax-ns#"
   xmlns:svg="http://www.w3.org/2000/svg"
   xmlns="http://www.w3.org/2000/svg"
   xmlns:sodipodi="http://sodipodi.sourceforge.net/DTD/sodipodi-0.dtd"
   xmlns:inkscape="http://www.inkscape.org/namespaces/inkscape"
   id="Layer_2"
   data-name="Layer 2"
   viewBox="0 0 21.17 21.17"
   version="1.1"
   sodipodi:docname="sunburst.svg"
   inkscape:version="0.92.3 (2405546, 2018-03-11)">
  <metadata
     id="metadata18">
    <rdf:RDF>
      <cc:Work
         rdf:about="">
        <dc:format>image/svg+xml</dc:format>
        <dc:type
           rdf:resource="http://purl.org/dc/dcmitype/StillImage" />
        <dc:title></dc:title>
      </cc:Work>
    </rdf:RDF>
  </metadata>
  <sodipodi:namedview
     pagecolor="#ffffff"
     bordercolor="#666666"
     borderopacity="1"
     objecttolerance="10"
     gridtolerance="10"
     guidetolerance="10"
     inkscape:pageopacity="0"
     inkscape:pageshadow="2"
     inkscape:window-width="1920"
     inkscape:window-height="1057"
     id="namedview16"
     showgrid="false"
     inkscape:zoom="11.147851"
     inkscape:cx="10.585"
     inkscape:cy="30.768263"
     inkscape:window-x="-8"
     inkscape:window-y="-8"
     inkscape:window-maximized="1"
     inkscape:current-layer="Layer_2" />
  <defs
     id="defs4">
    <style
       id="style2">
      .cls-1 {
        fill: #83a179;
      }

      .cls-2 {
        fill: #8cc761;
      }

      .cls-3 {
        fill: #578f40;
      }
    </style>
  </defs>
  <path
     inkscape:connector-curvature="0"
     class="st0"
     d="m 1.8239954,9.6662179 2.1252355,0.3654261 c -0.5102262,2.96736 0.8594075,5.929744 3.4416163,7.486925 L 6.2872024,19.371911 C 2.9543337,17.376592 1.182913,13.521861 1.8239954,9.6662179 Z"
     id="path97"
     style="fill:#668000;stroke-width:0.26955292" />
  <path
     inkscape:connector-curvature="0"
     class="st0"
     d="M 20.000855,8.0626949 C 21.362591,11.78681 20.2306,15.968307 17.175405,18.498069 l -1.388819,-1.641901 c 1.326747,-1.114799 2.21253,-2.65551 2.505328,-4.358355 0.213774,-1.243263 0.102909,-2.5232005 -0.336009,-3.6927056 z"
     id="path99"
     style="fill:#88aa00;stroke-width:0.26955292" />
  <path
     inkscape:connector-curvature="0"
     class="st1"
     d="m 12.705073,1.9780505 c 3.349902,0.5760028 6.126652,2.9105774 7.292128,6.1058965 L 17.971387,8.810505 C 16.642648,5.13309 12.664395,3.1690239 8.9559423,4.3283218 L 8.3185889,2.2768198 C 9.7366911,1.8396203 11.241317,1.7263632 12.705073,1.9780505 Z"
     id="path101"
     style="fill:#445500;stroke-width:0.26955292" />
  <path
     inkscape:connector-curvature="0"
     class="st0"
     d="M 6.1355668,10.407576 C 6.4562283,8.5426815 7.7935045,7.0166964 9.604499,6.4419214 L 8.9373465,4.3251243 C 6.3416497,5.1369435 4.3924422,7.3426803 3.9301784,10.031103 v 0 z"
     id="path103"
     style="fill:#ccff00;stroke-width:0.26955292" />
  <path
     inkscape:connector-curvature="0"
     class="st2"
     d="m 6.1319126,10.428828 -2.186336,-0.375932 c -0.5102261,2.96736 0.8594076,5.929745 3.4416163,7.486926 L 8.5199396,15.628577 C 6.7462939,14.538635 5.8014424,12.478022 6.1319126,10.428828 Z"
     id="path105"
     style="fill:#dde9af;stroke-width:0.26955292" />
  <path
     inkscape:connector-curvature="0"
     class="st0"
     d="M 12.339647,4.1032856 C 11.197333,3.906869 10.043791,3.998442 8.9314926,4.3432627 l 0.6671522,2.116798 C 10.362095,6.2193613 11.176836,6.173467 11.957861,6.3077612 13.743059,6.6147191 15.2407,7.8623334 15.856284,9.5791468 l 2.09111,-0.7563569 C 17.074714,6.3424423 14.927121,4.5481917 12.339647,4.1032856 Z"
     id="path107"
     style="fill:#cdde87;stroke-width:0.26955292" />
  <path
     inkscape:connector-curvature="0"
     class="st2"
     d="m 16.102922,12.121424 c -0.203269,1.182162 -0.822533,2.254505 -1.737154,3.024433 l 1.420818,1.710311 c 2.359133,-1.949266 3.224819,-5.186451 2.187915,-8.0478631 l -2.09111,0.7563569 c 0.291835,0.8160052 0.38878,1.6996962 0.219531,2.5567622 z"
     id="path109"
     style="fill:#677821;stroke-width:0.26955292" />
  <path
     inkscape:connector-curvature="0"
     class="st0"
     d="M 10.271119,16.260631 C 9.6707398,16.157398 9.0882596,15.934164 8.5656417,15.617289 l -1.1576532,1.928843 c 2.6582505,1.592137 6.0270975,1.326256 8.3930825,-0.662858 l -1.420818,-1.71031 c -1.150777,0.934454 -2.645379,1.339354 -4.109134,1.087667 z"
     id="path111"
     style="fill:#677821;stroke-width:0.26955292" />
  <path
     inkscape:connector-curvature="0"
     class="st3"
     d="M 8.2571482,10.794254 6.1319126,10.428828 c -0.3553768,2.066792 0.610727,4.13106 2.4092793,5.203403 L 9.6416392,13.797485 C 8.6149993,13.166933 8.0538799,11.976417 8.2571482,10.794254 Z"
     id="path113"
     style="fill:#bcd35f;stroke-width:0.26955292" />
  <path
     inkscape:connector-curvature="0"
     class="st1"
     d="M 10.633348,14.153991 C 10.29331,14.095523 9.9425258,13.9723 9.6448367,13.778889 l -1.079195,1.8384 c 1.8347463,1.100448 4.1763643,0.923241 5.8209213,-0.465121 l -1.370222,-1.638704 c -0.673273,0.543389 -1.540868,0.785327 -2.382993,0.640527 z"
     id="path115"
     style="fill:#aad400;stroke-width:0.26955292" />
  <path
     inkscape:connector-curvature="0"
     class="st1"
     d="m 6.1355668,10.407576 v 0 l 2.1252356,0.365426 v 0 C 8.4471697,9.689132 9.2165583,8.8094433 10.263562,8.4944206 L 9.626208,6.4429196 C 7.8121003,7.0198938 6.4562283,8.5426815 6.1355668,10.407576 Z"
     id="path117"
     style="fill:#668000;stroke-width:0.26955292" />
  <path
     inkscape:connector-curvature="0"
     class="st3"
     d="m 13.996282,11.759196 c -0.117393,0.682732 -0.472878,1.302644 -1.003394,1.747501 l 1.370224,1.638704 c 1.635049,-1.348971 2.248832,-3.598343 1.521277,-5.602448 l -2.025814,0.726558 c 0.187172,0.486208 0.223582,0.990254 0.137707,1.489685 z"
     id="path119"
     style="fill:#e5ff80;stroke-width:0.26955292" />
  <path
     inkscape:connector-curvature="0"
     class="st3"
     d="m 11.619541,8.4185122 c 1.02277,0.1758613 1.888058,0.9017467 2.238036,1.8727078 L 15.883391,9.5646618 C 15.270463,7.8483061 13.770165,6.6002339 11.984967,6.2932762 11.203943,6.158982 10.389201,6.2048762 9.6257513,6.4455756 l 0.6373537,2.051502 c 0.435853,-0.1329229 0.894198,-0.1580456 1.356436,-0.078565 z"
     id="path121"
     style="fill:#445016;stroke-width:0.26955292" />
  <g
     transform="matrix(0.26955293,0,0,0.26955293,-2.2977056,-2.5124777)"
     id="Layer_32" />
</svg>
