<?xml version="1.0" encoding="UTF-8" standalone="no"?>
<svg
   xmlns:dc="http://purl.org/dc/elements/1.1/"
   xmlns:cc="http://creativecommons.org/ns#"
   xmlns:rdf="http://www.w3.org/1999/02/22-rdf-syntax-ns#"
   xmlns:svg="http://www.w3.org/2000/svg"
   xmlns="http://www.w3.org/2000/svg"
   enable-background="new 0 0 1000 1000"
   version="1.1"
   viewBox="0 0 1000 1000"
   xml:space="preserve"
   id="svg2"><defs
     id="defs14" /><metadata
     id="metadata4"> Svg Vector Icons : http://www.onlinewebfonts.com/icon <rdf:RDF><cc:Work
     rdf:about=""><dc:format>image/svg+xml</dc:format><dc:type
       rdf:resource="http://purl.org/dc/dcmitype/StillImage" /><dc:title></dc:title></cc:Work></rdf:RDF></metadata><path
     d="m 59.76,506.35595 0,490 39.100508,0 39.100512,0 0,-490 0,-490.000002 -39.100512,0 -39.100508,0 0,490.000002 z"
     id="path6" /><g
     transform="translate(0,23.820948)"
     id="g4137"><path
       style="fill:none;stroke:#000000;stroke-width:60;stroke-miterlimit:4;stroke-dasharray:none"
       id="path8"
       d="m 266.65,302.03 0,161.79 187.22,0 187.22,0 0,-161.79 0,-161.79 -187.22,0 -187.22,0 0,161.79 z" /><path
       id="path10"
       d="m 236.65,691.88 0,162.95 359.4,0 359.42,0 0,-162.95 0,-162.95 -359.42,0 -359.4,0 0,162.95 z" /></g><rect
     style="fill:none;fill-opacity:1;stroke:none;stroke-width:21.73738098;stroke-linecap:square;stroke-linejoin:bevel;stroke-miterlimit:4;stroke-dasharray:none;stroke-dashoffset:1;stroke-opacity:1"
     id="rect4135"
     width="985.55078"
     height="985.55078"
     x="13.580541"
     y="13.580558"
     ry="22.8887" /></svg>