<?xml version="1.0" encoding="utf-8"?>
<!-- Generator: Adobe Illustrator 25.2.3, SVG Export Plug-In . SVG Version: 6.00 Build 0)  -->
<svg version="1.1" id="Layer_1" xmlns="http://www.w3.org/2000/svg" xmlns:xlink="http://www.w3.org/1999/xlink" x="0px" y="0px"
	 viewBox="0 0 25 32" style="enable-background:new 0 0 25 32;" xml:space="preserve">
<style type="text/css">
	.st0{fill:#A8CA57;}
	.st1{fill:url(#Caminho_6_1_);}
</style>
<g>
	<path id="Caminho_5" class="st0" d="M4.7,6.3L4.7,6.3c0,0.5,0.4,0.9,0.9,0.9h0.1c3.5,0,6.3-2.8,6.3-6.3v0C12,0.4,11.6,0,11.1,0H11
		C7.6,0,4.7,2.8,4.7,6.3C4.7,6.3,4.7,6.3,4.7,6.3z"/>
	
		<radialGradient id="Caminho_6_1_" cx="-904.7322" cy="534.7266" r="1.669" gradientTransform="matrix(24.8663 0 0 -24.864 22528.7441 13333.3945)" gradientUnits="userSpaceOnUse">
		<stop  offset="0.352" style="stop-color:#578E31"/>
		<stop  offset="1" style="stop-color:#A8CA57"/>
	</radialGradient>
	<path id="Caminho_6" class="st1" d="M24.2,23.8c0.6-1.7,0.9-3.6,0.7-5.4c-0.6-6-5.3-10.7-11.3-11.3C11.7,7,9.7,7.3,7.9,8
		C6.7,8.5,5.4,8.6,4.2,8.2c-0.4-0.1-0.9-0.1-1.3,0C2,8.4,1.4,9.1,1.2,9.9c-0.1,0.4-0.1,0.9,0,1.3C1.5,12.5,1.4,13.8,1,15
		c-0.7,1.8-1,3.7-0.8,5.7C0.7,26.7,5.5,31.5,11.5,32c1.9,0.1,3.8-0.1,5.5-0.8c1.3-0.5,2.7-0.6,4-0.2c0.4,0.1,0.8,0.1,1.1,0.1
		c1-0.2,1.8-1,1.9-1.9c0.1-0.4,0-0.9-0.1-1.3C23.6,26.5,23.7,25.1,24.2,23.8z"/>
</g>
</svg>
